<svg height="1567" node-id="1" sillyvg="true" template-height="1567" template-width="1025" version="1.1" viewBox="0 0 1025 1567" width="1025" xmlns="http://www.w3.org/2000/svg" xmlns:xlink="http://www.w3.org/1999/xlink"><defs node-id="99"></defs><g node-id="101"><path d="M 278.78 119.18 L 267.72 127.08 L 257.40 135.19 L 247.79 143.49 L 238.86 151.99 L 230.58 160.69 L 222.61 169.92 L 215.22 179.33 L 208.40 188.94 L 202.13 198.74 L 196.39 208.75 L 191.09 219.05 L 186.26 229.54 L 181.89 240.21 L 177.97 251.08 L 174.50 262.16 L 171.47 273.34 L 168.82 284.68 L 166.56 296.19 L 164.68 307.88 L 163.18 319.76 L 161.82 334.59 L 160.95 349.63 L 160.59 364.88 L 160.72 380.35 L 161.30 395.76 L 162.27 411.30 L 163.63 426.96 L 165.40 442.76" fill="none" group-id="1" id="路径" node-id="6" stroke="#9a9995" stroke-linecap="butt" stroke-width="1" target-height="323.58002" target-width="118.19" target-x="160.59" target-y="119.18"></path><path d="M 165.40 442.76 L 162.40 452.80 L 159.10 461.91 L 155.52 470.17 L 151.67 477.63 L 147.57 484.35 L 143.23 490.39 L 138.65 495.80" fill="none" group-id="1" id="路径" node-id="7" stroke="#a8a6a1" stroke-linecap="butt" stroke-width="1" target-height="53.039978" target-width="26.75" target-x="138.65" target-y="442.76"></path><path d="M 138.65 495.80 L 129.51 496.41 L 121.33 497.36 L 114.05 498.61 L 107.58 500.11 L 100.99 502.12 L 95.14 504.37 L 89.96 506.86 L 85.39 509.58 L 80.99 512.74 L 77.07 516.14 L 73.60 519.78 L 70.56 523.65 L 67.86 527.80 L 65.46 532.20 L 63.36 536.86 L 61.57 541.82 L 59.65 548.57 L 58.09 555.80 L 56.90 563.55 L 55.73 575.41 L 55.04 588.31 L 54.45 615.57 L 54.60 624.20 L 55.22 632.21 L 56.26 639.63 L 57.71 646.52 L 59.54 652.91 L 61.74 658.84 L 64.29 664.34 L 67.40 669.83 L 70.86 674.92 L 74.70 679.63 L 78.90 683.98 L 83.50 687.99 L 88.51 691.67 L 93.95 695.01 L 100.39 698.30 L 107.36 701.21 L 114.89 703.72 L 123.05 705.83 L 131.86 707.51 L 141.38 708.73" fill="none" group-id="1" id="路径" node-id="8" stroke="#9a9995" stroke-linecap="butt" stroke-width="1" target-height="212.93" target-width="86.93001" target-x="54.45" target-y="495.8"></path><path d="M 141.38 708.73 L 171.78 761.93" fill="none" group-id="1" id="路径" node-id="9" stroke="#a8a6a1" stroke-linecap="butt" stroke-width="1" target-height="53.200012" target-width="30.399994" target-x="141.38" target-y="708.73"></path><path d="M 171.78 761.93 L 173.67 777.86 L 176.09 793.17 L 179.03 807.86 L 182.48 821.98 L 186.42 835.54 L 190.84 848.58 L 195.74 861.11 L 201.11 873.15 L 206.94 884.74 L 213.23 895.87 L 220.00 906.58 L 227.23 916.88 L 234.94 926.78 L 243.13 936.30 L 251.83 945.44 L 261.03 954.21 L 270.75 962.63 L 281.02 970.69 L 291.85 978.40 L 303.27 985.75 L 315.29 992.75 L 327.94 999.39 L 341.25 1005.67 L 355.25 1011.58 L 369.97 1017.11" fill="none" group-id="1" id="路径" node-id="10" stroke="#9a9995" stroke-linecap="butt" stroke-width="1" target-height="255.18" target-width="198.19" target-x="171.78" target-y="761.93"></path><path d="M 369.97 1017.11 L 366.17 1028.51" fill="none" group-id="1" id="路径" node-id="11" stroke="#fbe4d5" stroke-linecap="butt" stroke-width="1" target-height="11.400024" target-width="3.7999878" target-x="366.17" target-y="1017.11"></path><path d="M 366.17 1028.51 L 306.42 1053.62 L 256.24 1075.23 L 214.55 1093.69 L 180.35 1109.34 L 152.71 1122.50 L 130.75 1133.48 L 113.65 1142.54 L 100.65 1149.95 L 90.98 1156.08 L 82.03 1162.44 L 73.76 1169.01 L 66.14 1175.80 L 59.14 1182.81 L 52.44 1190.32 L 46.26 1198.05 L 40.57 1206.02 L 35.37 1214.23 L 30.65 1222.69 L 26.36 1231.38 L 22.44 1240.31 L 18.89 1249.50 L 15.71 1258.95 L 12.91 1268.68 L 9.94 1280.89 L 7.40 1293.49 L 5.30 1306.48 L 3.65 1319.90 L 2.08 1337.79 L 1.05 1356.31 L 0.58 1375.48 L 0.56 1394.64 L 0.84 1414.31 L 1.44 1434.51 L 3.94 1496.11 L 5.10 1527.52 L 5.81 1559.40 L 6.12 1561.44 L 6.90 1563.24 L 8.09 1564.78 L 9.62 1565.96 L 11.40 1566.72 L 13.41 1566.99 L 734.73 1566.84" fill="none" group-id="1" id="路径" node-id="12" stroke="#a8a6a1" stroke-linecap="butt" stroke-width="1" target-height="538.48" target-width="734.17" target-x="0.56" target-y="1028.51"></path><path d="M 734.73 1566.84 L 784.89 1564.87" fill="none" group-id="1" id="路径" node-id="13" stroke="#ecebe0" stroke-linecap="butt" stroke-width="1" target-height="1.9699707" target-width="50.160034" target-x="734.73" target-y="1564.87"></path><path d="M 784.89 1564.87 L 1010.28 1565.63 L 1012.37 1565.34 L 1014.23 1564.55 L 1015.82 1563.32 L 1017.06 1561.72 L 1017.87 1559.85 L 1018.19 1557.72 L 1018.87 1538.64 L 1019.89 1517.65 L 1022.29 1473.22 L 1023.36 1449.99 L 1024.15 1425.99 L 1024.51 1401.84 L 1024.27 1377.50 L 1023.71 1361.27 L 1022.76 1345.20 L 1021.42 1329.29 L 1019.59 1313.44 L 1017.24 1297.98 L 1014.38 1282.90 L 1011.81 1271.65 L 1008.87 1260.74 L 1005.58 1250.15 L 1001.94 1239.88 L 997.81 1229.74 L 993.26 1220.02 L 988.28 1210.70 L 982.87 1201.77 L 978.16 1194.85 L 973.12 1188.24 L 967.75 1181.91 L 962.03 1175.87 L 955.97 1170.11 L 949.63 1164.75 L 942.89 1159.70 L 935.72 1154.97 L 928.10 1150.55 L 920.00 1146.45 L 789.34 1085.09 L 658.74 1023.49" fill="none" group-id="1" id="路径" node-id="14" stroke="#a8a6a1" stroke-linecap="butt" stroke-width="1" target-height="542.14" target-width="365.77002" target-x="658.74" target-y="1023.49"></path><path d="M 658.74 1023.49 L 651.23 1020.12 L 644.16 1016.37 L 637.51 1012.27 L 631.26 1007.80 L 625.40 1002.95 L 619.90 997.73 L 614.76 992.12 L 609.95 986.11" fill="none" group-id="1" id="路径" node-id="15" stroke="#fbe4d5" stroke-linecap="butt" stroke-width="1" target-height="37.380005" target-width="48.789978" target-x="609.95" target-y="986.11"></path><path d="M 609.95 986.11 L 611.93 933.82" fill="none" group-id="1" id="路径" node-id="16" stroke="#f9d5be" stroke-linecap="butt" stroke-width="1" target-height="52.289978" target-width="1.9799805" target-x="609.95" target-y="933.82"></path><path d="M 611.93 933.82 L 617.55 911.79 L 618.30 909.66 L 619.36 907.65 L 620.73 905.74 L 622.35 904.02 L 624.22 902.50 L 626.37 901.15 L 639.40 894.01 L 651.78 886.53 L 663.52 878.70 L 674.66 870.53 L 685.21 862.02 L 695.20 853.16 L 704.63 843.94 L 713.54 834.37 L 721.93 824.43 L 729.81 814.12 L 737.20 803.41 L 744.09 792.31 L 750.49 780.79 L 756.42 768.84 L 761.85 756.44 L 766.80 743.56 L 771.26 730.19 L 775.21 716.31 L 778.66 701.89 L 779.37 699.31 L 780.35 697.04 L 781.59 695.02 L 783.12 693.23 L 784.83 691.84 L 786.71 690.80 L 790.44 689.45 L 793.82 688.79 L 796.91 688.74 L 799.79 689.24 L 802.51 690.30 L 805.12 691.95 L 807.65 694.26 L 810.12 697.33" fill="none" group-id="1" id="路径" node-id="17" stroke="#fbe4d5" stroke-linecap="butt" stroke-width="1" target-height="245.08002" target-width="198.19" target-x="611.93" target-y="688.74"></path><path d="M 810.12 697.33 L 809.66 733.20 L 809.77 734.86 L 810.13 736.42 L 810.75 737.88 L 811.59 739.17 L 812.65 740.25 L 813.83 741.03 L 815.13 741.53 L 816.50 741.71 L 863.47 742.78 L 865.02 742.50 L 866.48 741.75 L 867.88 740.45 L 868.99 738.85 L 869.85 736.91 L 870.46 734.57 L 875.32 708.13" fill="none" group-id="1" id="路径" node-id="18" stroke="#a8a6a1" stroke-linecap="butt" stroke-width="1" target-height="45.450012" target-width="65.660034" target-x="809.66" target-y="697.33"></path><path d="M 875.32 708.13 L 886.85 707.91 L 897.24 707.15 L 906.60 705.90 L 914.99 704.20 L 922.52 702.09 L 929.25 699.62 L 935.27 696.80 L 940.62 693.65 L 945.38 690.18 L 949.58 686.40 L 953.27 682.29 L 956.48 677.84 L 959.22 673.02 L 963.32 664.08 L 966.81 655.06 L 969.69 645.96 L 971.99 636.75 L 973.70 627.43 L 974.83 617.96 L 975.37 608.34 L 975.33 598.54 L 974.71 587.62 L 973.61 577.53 L 972.07 568.21 L 970.12 559.61 L 967.79 551.68 L 965.09 544.36 L 962.04 537.63 L 958.66 531.43 L 954.95 525.73 L 950.91 520.49 L 946.53 515.70 L 941.81 511.33 L 936.72 507.35" fill="none" group-id="1" id="路径" node-id="19" stroke="#9a9995" stroke-linecap="butt" stroke-width="1" target-height="200.78" target-width="100.04999" target-x="875.32" target-y="507.35"></path><path d="M 936.72 507.35 L 932.71 503.80 L 928.58 500.90 L 924.33 498.59 L 919.91 496.85 L 915.32 495.66 L 910.50 495.01 L 905.42 494.93 L 900.04 495.43 L 894.32 496.56" fill="none" group-id="1" id="路径" node-id="20" stroke="#ccc7b0" stroke-linecap="butt" stroke-width="1" target-height="12.420013" target-width="42.399963" target-x="894.32" target-y="494.93"></path><path d="M 894.32 496.56 L 890.58 494.94 L 886.89 493.81 L 883.24 493.16 L 879.59 492.96 L 875.93 493.22 L 874.78 493.24 L 873.68 493.00 L 872.66 492.52 L 871.77 491.79 L 871.07 490.88 L 870.61 489.85 L 870.40 488.74 L 870.46 487.59 L 871.26 481.46 L 871.42 475.55 L 870.98 469.81 L 869.94 464.23 L 868.30 458.75 L 866.04 453.37 L 863.12 448.04 L 859.51 442.76" fill="none" group-id="1" id="路径" node-id="21" stroke="#a8a6a1" stroke-linecap="butt" stroke-width="1" target-height="53.799988" target-width="34.809998" target-x="859.51" target-y="442.76"></path><path d="M 859.51 442.76 L 861.11 414.92 L 862.07 388.40 L 862.29 370.84 L 862.05 353.82 L 861.38 337.32 L 860.52 324.93 L 859.31 312.80 L 857.75 300.92 L 855.86 289.29 L 853.55 277.69 L 850.78 266.30 L 847.58 255.09 L 843.92 244.07 L 839.79 233.24 L 835.09 222.53 L 829.83 211.93 L 823.98 201.44 L 817.68 191.32 L 810.67 181.23 L 802.94 171.18 L 794.45 161.15 L 787.46 153.56 L 779.92 145.95 L 771.80 138.32 L 763.08 130.66 L 753.73 122.98" fill="none" group-id="1" id="路径" node-id="22" stroke="#9a9995" stroke-linecap="butt" stroke-width="1" target-height="319.78" target-width="108.56" target-x="753.73" target-y="122.98"></path><path d="M 753.73 122.98 L 746.01 112.93 L 737.94 103.32 L 729.52 94.13 L 720.73 85.37 L 711.58 77.01 L 702.05 69.02 L 692.26 61.48 L 682.21 54.37 L 671.87 47.68 L 661.25 41.41 L 650.38 35.56 L 639.34 30.16 L 628.13 25.21 L 616.73 20.70 L 605.13 16.62 L 593.38 12.99 L 581.55 9.82 L 569.65 7.11 L 557.65 4.87 L 545.57 3.07 L 533.40 1.75 L 521.26 0.90 L 509.14 0.52 L 497.03 0.63 L 484.92 1.20 L 472.83 2.27 L 460.86 3.83 L 448.99 5.87 L 437.23 8.41 L 425.56 11.45 L 414.03 14.98 L 402.70 19.02 L 391.57 23.58 L 380.62 28.64 L 369.84 34.23 L 359.37 40.30 L 349.17 46.90 L 339.24 54.04 L 329.56 61.74 L 320.12 70.00 L 312.66 77.16 L 305.43 84.72 L 298.43 92.69 L 291.65 101.08 L 285.10 109.91 L 278.78 119.18" fill="none" group-id="1" id="路径" node-id="23" stroke="#a8a6a1" stroke-linecap="butt" stroke-width="1" target-height="122.46001" target-width="474.94998" target-x="278.78" target-y="0.52"></path><path d="M 753.73 122.98 L 730.33 146.39" fill="none" group-id="1" id="路径" node-id="24" stroke="#423f37" stroke-linecap="butt" stroke-width="1" target-height="23.409996" target-width="23.399963" target-x="730.33" target-y="122.98"></path><path d="M 730.33 146.39 L 715.20 141.23 L 703.38 136.69 L 694.33 132.70 L 687.60 129.21 L 682.76 126.17 L 668.92 116.81 L 655.30 108.31 L 641.86 100.65 L 628.61 93.78 L 615.53 87.68 L 602.61 82.31 L 589.83 77.66 L 577.18 73.71 L 564.65 70.42 L 552.21 67.79 L 539.87 65.80 L 527.59 64.44 L 515.38 63.70 L 503.20 63.57 L 491.05 64.06 L 478.91 65.16 L 466.77 66.88 L 454.60 69.22 L 442.41 72.21 L 430.16 75.84 L 417.85 80.13 L 405.47 85.11 L 393.00 90.79 L 380.43 97.20 L 367.75 104.37 L 354.95 112.32 L 342.01 121.09 L 328.94 130.71 L 315.71 141.22" fill="none" group-id="1" id="路径" node-id="25" stroke="#447046" stroke-linecap="butt" stroke-width="1" target-height="82.82" target-width="414.62003" target-x="315.71" target-y="63.57"></path><path d="M 315.71 141.22 L 278.78 119.18" fill="none" group-id="1" id="路径" node-id="26" stroke="#423f37" stroke-linecap="butt" stroke-width="1" target-height="22.04" target-width="36.929993" target-x="278.78" target-y="119.18"></path><path d="M 202.18 446.56 L 197.11 448.41 L 192.26 449.55 L 187.58 450.02 L 183.04 449.86 L 178.59 449.07 L 174.19 447.66 L 169.80 445.57 L 165.40 442.76" fill="none" group-id="1" id="路径" node-id="27" stroke="#423f37" stroke-linecap="butt" stroke-width="1" target-height="7.2599792" target-width="36.78" target-x="165.4" target-y="442.76"></path><path d="M 730.33 146.39 L 740.32 153.79 L 749.61 161.38 L 758.23 169.16 L 766.20 177.13 L 773.55 185.30 L 780.58 193.95 L 787.07 202.77 L 793.04 211.78 L 798.50 220.97 L 803.46 230.36 L 808.00 240.00 L 812.12 249.81 L 815.83 259.78 L 819.13 269.94 L 822.01 280.29 L 825.08 293.33 L 827.63 306.59 L 829.66 320.08 L 831.17 333.81 L 832.20 347.55 L 832.83 361.44 L 833.06 375.47 L 832.88 389.66 L 832.13 408.55 L 830.88 427.51 L 829.12 446.56" fill="none" group-id="1" id="路径" node-id="28" stroke="#36633a" stroke-linecap="butt" stroke-width="1" target-height="300.16998" target-width="102.72998" target-x="730.33" target-y="146.39"></path><path d="M 829.12 446.56 L 825.52 447.00 L 822.41 447.76 L 819.73 448.80 L 817.42 450.10 L 814.62 452.34 L 812.30 454.98 L 810.42 458.05 L 808.99 461.40 L 807.88 465.07 L 807.11 469.12 L 806.51 475.35 L 806.45 482.01 L 806.79 488.74 L 807.41 495.44 L 808.98 508.12 L 809.68 513.94 L 810.12 518.75" fill="none" group-id="1" id="路径" node-id="29" stroke="#447046" stroke-linecap="butt" stroke-width="1" target-height="72.19" target-width="22.669983" target-x="806.45" target-y="446.56"></path><path d="M 810.12 518.75 L 804.12 515.33 L 798.40 511.50 L 792.96 507.24 L 787.77 502.54 L 782.89 497.53 L 778.24 492.20 L 773.80 486.54 L 769.58 480.53 L 764.37 472.25 L 759.50 463.59 L 754.98 454.54 L 750.82 445.31 L 746.96 435.93 L 743.41 426.41 L 738.56 412.04 L 734.30 397.97 L 730.45 384.04 L 727.09 371.05 L 721.21 347.46 L 720.70 346.21 L 719.94 345.14 L 718.97 344.27 L 717.82 343.66 L 716.57 343.37 L 715.35 343.40 L 714.19 343.76 L 713.15 344.42 L 697.04 359.01 L 695.36 360.14 L 693.63 360.78 L 691.79 360.97 L 689.98 360.72 L 688.35 360.03 L 686.86 358.86 L 642.33 311.14 L 641.21 310.18 L 639.92 309.53 L 638.54 309.19 L 637.13 309.19 L 635.79 309.56 L 634.67 310.23 L 633.79 311.17 L 633.21 312.36 L 625.46 336.52 L 624.66 338.51 L 623.87 339.57 L 623.08 340.04 L 622.22 340.05 L 621.18 339.57 L 619.83 338.34 L 610.42 327.86 L 601.02 318.26 L 591.64 309.50 L 582.26 301.55 L 572.88 294.37 L 563.50 287.92 L 554.10 282.17 L 544.68 277.09 L 535.22 272.67 L 525.71 268.86 L 516.13 265.68 L 506.48 263.08 L 496.73 261.08 L 486.86 259.67 L 476.86 258.84 L 466.72 258.60 L 456.40 258.96 L 445.90 259.93 L 435.19 261.52 L 424.25 263.76 L 413.06 266.67 L 401.61 270.28 L 389.87 274.61 L 377.82 279.71 L 365.45 285.62 L 352.73 292.36 L 339.66 299.99 L 326.20 308.56 L 321.05 312.33 L 316.58 316.35 L 312.72 320.63 L 309.44 325.19 L 306.71 330.04 L 304.50 335.22 L 302.83 340.76 L 301.69 346.70 L 301.12 353.09 L 300.37 364.76 L 299.04 376.15 L 297.13 387.27 L 294.66 398.16 L 291.63 408.81 L 288.02 419.25 L 283.85 429.50 L 279.09 439.57 L 273.74 449.47 L 267.79 459.21 L 261.21 468.80 L 253.99 478.25 L 246.10 487.58 L 237.51 496.77 L 228.20 505.85 L 218.14 514.80" fill="none" group-id="1" id="路径" node-id="30" stroke="#97ae7a" stroke-linecap="butt" stroke-width="1" target-height="260.15" target-width="591.98" target-x="218.14" target-y="258.6"></path><path d="M 218.14 514.80 L 217.92 503.94 L 217.13 493.85 L 215.82 484.47 L 214.00 475.75 L 211.71 467.64 L 208.97 460.10 L 205.79 453.09 L 202.18 446.56" fill="none" group-id="1" id="路径" node-id="31" stroke="#447046" stroke-linecap="butt" stroke-width="1" target-height="68.23999" target-width="15.960007" target-x="202.18" target-y="446.56"></path><path d="M 202.18 446.56 L 199.27 431.89 L 196.95 417.34 L 195.22 402.91 L 194.06 388.58 L 193.47 374.35 L 193.45 360.19 L 193.99 346.11 L 195.09 332.09 L 196.75 318.11 L 198.98 304.17 L 201.77 290.26 L 205.13 276.37 L 209.08 262.48 L 213.61 248.59 L 218.74 234.69 L 223.06 224.55 L 227.76 215.05 L 232.85 206.14 L 238.33 197.80 L 244.18 190.00 L 250.41 182.72 L 257.04 175.92 L 264.07 169.61 L 271.51 163.75 L 279.39 158.35 L 287.72 153.40 L 296.54 148.89 L 305.86 144.83 L 315.71 141.22" fill="none" group-id="1" id="路径" node-id="32" stroke="#36633a" stroke-linecap="butt" stroke-width="1" target-height="305.34" target-width="122.259995" target-x="193.45" target-y="141.22"></path><path d="M 859.51 442.76 L 829.12 446.56" fill="none" group-id="1" id="路径" node-id="33" stroke="#423f37" stroke-linecap="butt" stroke-width="1" target-height="3.7999878" target-width="30.390015" target-x="829.12" target-y="442.76"></path><path d="M 214.79 693.53 L 215.33 702.71 L 215.25 711.66 L 214.57 720.41 L 213.29 728.98 L 211.42 737.40 L 208.95 745.69 L 205.87 753.86 L 202.18 761.93" fill="none" group-id="1" id="路径" node-id="34" stroke="#a8a6a1" stroke-linecap="butt" stroke-width="1" target-height="68.39996" target-width="13.150009" target-x="202.18" target-y="693.53"></path><path d="M 202.18 761.93 L 199.03 758.72 L 196.02 756.41 L 193.12 754.86 L 190.29 753.96 L 187.48 753.65 L 184.63 753.91 L 181.69 754.78 L 178.60 756.32 L 175.31 758.66 L 171.78 761.93" fill="none" group-id="1" id="路径" node-id="35" stroke="#423f37" stroke-linecap="butt" stroke-width="1" target-height="8.279968" target-width="30.399994" target-x="171.78" target-y="753.65"></path><path d="M 141.38 708.73 L 144.25 690.91 L 146.55 673.13 L 148.29 655.39 L 149.46 637.67 L 150.07 619.97 L 150.12 602.27 L 149.62 584.58 L 148.55 566.87 L 146.93 549.15 L 144.74 531.41 L 141.98 513.62 L 138.65 495.80" fill="none" group-id="1" id="路径" node-id="36" stroke="#423f37" stroke-linecap="butt" stroke-width="1" target-height="212.93" target-width="11.470001" target-x="138.65" target-y="495.8"></path><path d="M 810.12 518.75 L 810.12 697.33" fill="none" group-id="1" id="路径" node-id="37" stroke="#a38b77" stroke-linecap="butt" stroke-width="1" target-height="178.58002" target-width="0" target-x="810.12" target-y="518.75"></path><path d="M 611.93 933.82 L 596.40 937.23 L 580.95 940.03 L 565.58 942.23 L 550.27 943.84 L 535.00 944.86 L 519.78 945.30 L 504.59 945.15 L 489.41 944.43 L 474.24 943.12 L 459.07 941.23 L 443.89 938.75 L 428.68 935.68 L 413.44 932.00" fill="none" group-id="1" id="路径" node-id="38" stroke="#f4ba94" stroke-linecap="butt" stroke-width="1" target-height="13.299988" target-width="198.48999" target-x="413.44" target-y="932"></path><path d="M 413.44 932.00 L 411.39 926.72 L 408.69 920.98 L 406.60 917.22 L 404.23 913.59 L 401.57 910.09 L 398.62 906.86 L 395.39 904.03 L 391.86 901.60 L 379.47 893.99 L 367.67 886.05 L 356.42 877.77 L 345.72 869.17 L 335.55 860.24 L 325.89 850.97 L 316.72 841.35 L 308.04 831.39 L 299.83 821.08 L 292.09 810.39 L 284.81 799.33 L 277.98 787.88 L 271.61 776.02 L 265.69 763.75 L 260.21 751.03 L 255.20 737.87 L 250.65 724.23 L 246.56 710.10 L 244.80 704.63 L 242.82 700.28 L 240.66 696.88 L 238.35 694.28 L 235.87 692.35 L 233.20 691.03 L 230.30 690.26 L 227.09 690.05 L 223.50 690.46 L 219.43 691.58 L 214.79 693.53" fill="none" group-id="1" id="路径" node-id="39" stroke="#fbe4d5" stroke-linecap="butt" stroke-width="1" target-height="241.95001" target-width="198.65001" target-x="214.79" target-y="690.05"></path><path d="M 214.79 693.53 L 218.14 514.80" fill="none" group-id="1" id="路径" node-id="40" stroke="#a38b77" stroke-linecap="butt" stroke-width="1" target-height="178.73004" target-width="3.350006" target-x="214.79" target-y="514.8"></path><path d="M 894.32 496.56 L 894.32 499.15" fill="none" group-id="1" id="路径" node-id="41" stroke="#746e52" stroke-linecap="butt" stroke-width="1" target-height="2.5899963" target-width="0" target-x="894.32" target-y="496.56"></path><path d="M 894.32 499.15 L 892.06 499.52 L 889.93 500.28 L 887.91 501.43 L 885.97 503.03 L 884.11 505.12 L 882.19 507.91 L 880.35 511.29 L 878.60 515.34 L 876.97 520.15 L 875.26 526.53 L 873.74 533.81 L 872.43 542.08 L 871.03 554.74 L 870.06 568.77 L 869.54 583.12 L 869.37 598.05 L 869.53 613.03 L 869.93 627.78 L 870.53 642.31 L 871.26 655.80 L 872.91 679.97 L 874.41 698.13 L 875.32 708.13" fill="none" group-id="1" id="路径" node-id="42" stroke="#423f37" stroke-linecap="butt" stroke-width="1" target-height="208.98001" target-width="24.950012" target-x="869.37" target-y="499.15"></path><path d="M 419.37 993.10 L 552.96 1001.30" fill="none" group-id="1" id="路径" node-id="43" stroke="#936e54" stroke-linecap="butt" stroke-width="1" target-height="8.200012" target-width="133.59003" target-x="419.37" target-y="993.1"></path><path d="M 552.96 1001.30 L 547.03 1067.57 L 546.56 1069.78 L 545.72 1071.64 L 544.53 1073.24 L 543.01 1074.50 L 541.33 1075.29 L 539.43 1075.63 L 486.09 1075.93 L 484.00 1075.65 L 482.12 1074.88 L 480.48 1073.67 L 479.15 1072.07 L 478.22 1070.19 L 477.73 1068.03 L 474.99 1041.12 L 474.52 1039.02 L 473.65 1037.17 L 472.37 1035.53 L 470.77 1034.18 L 468.93 1033.22 L 466.78 1032.61 L 369.97 1017.11" fill="none" group-id="1" id="路径" node-id="44" stroke="#957e6b" stroke-linecap="butt" stroke-width="1" target-height="74.630066" target-width="182.99002" target-x="369.97" target-y="1001.3"></path><path d="M 413.44 932.00 L 419.37 993.10" fill="none" group-id="1" id="路径" node-id="45" stroke="#f9d5be" stroke-linecap="butt" stroke-width="1" target-height="61.099976" target-width="5.9299927" target-x="413.44" target-y="932"></path><path d="M 419.37 993.10 L 404.41 990.15 L 390.17 986.76 L 376.62 982.92 L 363.71 978.66 L 351.43 973.99 L 339.74 968.91 L 328.61 963.44 L 318.03 957.58 L 307.97 951.34 L 298.40 944.70 L 289.31 937.68 L 280.68 930.27 L 272.50 922.45 L 264.76 914.22 L 257.43 905.58 L 250.53 896.49 L 244.03 886.96 L 237.94 876.95 L 232.25 866.46 L 226.98 855.46 L 222.12 843.92 L 217.67 831.82 L 213.66 819.13 L 210.09 805.83 L 206.97 791.88 L 204.33 777.26 L 202.18 761.93" fill="none" group-id="1" id="路径" node-id="46" stroke="#9a9995" stroke-linecap="butt" stroke-width="1" target-height="231.16998" target-width="217.19" target-x="202.18" target-y="761.93"></path><path d="M 609.95 986.11 L 604.14 989.91 L 598.23 993.15 L 592.22 995.86 L 586.09 998.04 L 579.82 999.71 L 573.40 1000.88 L 566.80 1001.54 L 559.99 1001.69 L 552.96 1001.30" fill="none" group-id="1" id="路径" node-id="47" stroke="#f4ba94" stroke-linecap="butt" stroke-width="1" target-height="15.580017" target-width="56.98999" target-x="552.96" target-y="986.11"></path><path d="M 936.72 507.35 L 931.09 508.33 L 925.60 508.72 L 920.24 508.55 L 914.98 507.83 L 909.78 506.55 L 904.62 504.69 L 899.47 502.24 L 894.32 499.15" fill="none" group-id="1" id="路径" node-id="48" stroke="#666146" stroke-linecap="butt" stroke-width="1" target-height="9.570007" target-width="42.399963" target-x="894.32" target-y="499.15"></path><path d="M 658.74 1023.49 L 656.60 1034.20 L 654.06 1044.30 L 651.14 1053.85 L 647.85 1062.85 L 644.21 1071.36 L 640.02 1079.85 L 635.54 1087.81 L 630.79 1095.27 L 625.76 1102.25 L 620.45 1108.77 L 614.69 1115.08 L 608.74 1120.91 L 602.59 1126.28 L 596.24 1131.21 L 589.69 1135.72 L 582.82 1139.87 L 575.85 1143.58 L 568.75 1146.86 L 561.53 1149.72 L 554.16 1152.15 L 546.64 1154.18 L 539.09 1155.79 L 531.49 1156.96 L 523.83 1157.72 L 516.10 1158.06 L 508.37 1157.97 L 500.69 1157.47 L 493.03 1156.54 L 485.39 1155.18 L 477.76 1153.40 L 470.27 1151.21 L 462.89 1148.59 L 455.62 1145.55 L 448.44 1142.07 L 441.35 1138.14 L 434.55 1133.87 L 427.94 1129.15 L 421.50 1123.99 L 415.23 1118.37 L 409.13 1112.26 L 403.47 1105.93 L 398.05 1099.13 L 392.89 1091.84 L 387.98 1084.05 L 383.32 1075.73 L 379.21 1067.36 L 375.43 1058.49 L 371.99 1049.07 L 368.90 1039.09 L 366.17 1028.51" fill="none" group-id="1" id="路径" node-id="49" stroke="#a38b77" stroke-linecap="butt" stroke-width="1" target-height="134.57007" target-width="292.56998" target-x="366.17" target-y="1023.49"></path><path d="M 784.89 1564.87 L 787.56 1553.41 L 789.59 1542.10 L 790.98 1530.91 L 791.75 1519.83 L 791.91 1508.85 L 791.46 1497.95 L 790.41 1487.11 L 788.75 1476.31 L 786.48 1465.54 L 783.60 1454.79 L 780.07 1444.03 L 775.90 1433.26 L 771.06 1422.46 L 769.72 1418.96 L 768.97 1415.38 L 768.80 1411.75 L 769.24 1408.17 L 772.73 1390.21 L 775.87 1372.38 L 778.66 1354.67 L 779.87 1345.06 L 780.57 1336.03 L 780.80 1327.54 L 780.59 1319.57 L 779.96 1312.06 L 778.84 1304.32 L 777.35 1297.08 L 775.50 1290.30 L 773.31 1283.97 L 770.77 1278.04 L 767.77 1272.16 L 764.47 1266.70 L 760.89 1261.62 L 757.03 1256.92 L 752.87 1252.57 L 748.38 1248.49 L 743.66 1244.77 L 738.70 1241.39 L 733.49 1238.35 L 728.01 1235.63 L 720.97 1232.75 L 713.63 1230.38 L 705.96 1228.53 L 697.95 1227.20 L 689.92 1226.42 L 681.67 1226.16 L 673.19 1226.43 L 664.44 1227.25 L 655.84 1228.56 L 647.11 1230.40 L 638.26 1232.79 L 629.26 1235.75 L 620.50 1239.15 L 611.74 1243.09 L 602.96 1247.60 L 594.15 1252.69" fill="none" group-id="1" id="路径" node-id="50" stroke="#949182" stroke-linecap="butt" stroke-width="1" target-height="338.70996" target-width="197.75995" target-x="594.15" target-y="1226.16"></path><path d="M 594.15 1252.69 L 576.38 1250.49 L 558.64 1248.85 L 540.92 1247.76 L 523.21 1247.21 L 505.50 1247.21 L 487.79 1247.76 L 470.07 1248.85 L 452.33 1250.49 L 434.56 1252.69" fill="none" group-id="1" id="路径" node-id="51" stroke="#406379" stroke-linecap="butt" stroke-width="1" target-height="5.4799805" target-width="159.59003" target-x="434.56" target-y="1247.21"></path><path d="M 434.56 1252.69 L 425.68 1247.84 L 416.49 1243.35 L 407.00 1239.22 L 397.33 1235.55 L 387.53 1232.41 L 377.58 1229.79 L 370.02 1228.21 L 362.47 1227.02 L 354.92 1226.20 L 347.37 1225.77 L 339.80 1225.75 L 332.30 1226.20 L 324.86 1227.12 L 317.47 1228.49 L 310.21 1230.36 L 303.05 1232.78 L 295.97 1235.76 L 288.96 1239.31 L 282.25 1243.40 L 276.27 1247.66 L 270.97 1252.09 L 266.30 1256.68 L 261.95 1261.71 L 258.13 1266.88 L 254.81 1272.22 L 251.97 1277.73 L 249.54 1283.47 L 247.49 1289.35 L 245.83 1295.39 L 244.56 1301.61 L 243.39 1309.99 L 242.76 1318.60 L 242.66 1327.45 L 243.01 1336.31 L 243.75 1345.29 L 244.87 1354.39 L 247.07 1368.00 L 249.78 1381.59 L 252.82 1395.07 L 255.98 1408.17 L 256.43 1411.07 L 256.49 1414.41 L 256.11 1418.28 L 255.22 1422.76 L 226.65 1535.53 L 226.12 1538.74 L 226.10 1541.90 L 226.59 1545.06 L 227.55 1548.11 L 228.98 1551.01 L 230.91 1553.78 L 233.23 1556.23 L 235.84 1558.31 L 238.78 1560.02 L 241.92 1561.32 L 245.21 1562.17 L 248.69 1562.59 L 258.98 1562.79 L 268.57 1562.41 L 277.50 1561.49 L 285.83 1560.07 L 293.60 1558.17 L 300.85 1555.81 L 307.62 1553.00 L 313.95 1549.76 L 319.86 1546.09 L 325.38 1541.97 L 330.54 1537.40 L 335.34 1532.36 L 339.81 1526.82 L 343.94 1520.76 L 347.74 1514.13 L 351.20 1506.89 L 354.30 1499.01 L 357.04 1490.43 L 359.38 1481.09 L 361.31 1470.94 L 361.64 1469.65 L 362.24 1468.49 L 363.09 1467.49 L 364.16 1466.69 L 365.39 1466.14 L 366.70 1465.88 L 368.04 1465.91 L 369.36 1466.23 L 379.40 1469.74 L 388.75 1472.41 L 397.47 1474.29 L 405.61 1475.46 L 413.21 1475.97 L 420.34 1475.87 L 427.02 1475.19 L 433.31 1473.97 L 439.24 1472.21 L 444.86 1469.94 L 450.18 1467.13 L 455.25 1463.79 L 460.07 1459.88 L 464.67 1455.37 L 469.04 1450.22 L 473.20 1444.37 L 477.13 1437.77 L 480.83 1430.34 L 484.28 1422.02 L 487.45 1412.73 L 488.94 1408.84 L 490.74 1405.58 L 492.20 1403.63 L 493.73 1402.02 L 495.36 1400.72 L 499.31 1398.37 L 503.19 1396.65 L 507.01 1395.52 L 510.81 1394.93 L 514.63 1394.87 L 518.50 1395.34 L 522.46 1396.37 L 526.54 1397.99 L 530.77 1400.27 L 532.50 1401.54 L 534.06 1403.13 L 535.47 1405.09 L 536.62 1407.22 L 537.53 1409.61 L 538.22 1412.27 L 540.11 1420.35 L 542.40 1427.71 L 545.08 1434.40 L 548.11 1440.49 L 551.49 1446.01 L 555.23 1451.02 L 559.31 1455.54 L 563.75 1459.60 L 568.58 1463.23 L 573.81 1466.43 L 579.48 1469.22 L 585.63 1471.58 L 592.29 1473.50 L 599.52 1474.97 L 607.37 1475.95 L 615.88 1476.41 L 618.98 1476.19 L 622.51 1475.35 L 626.05 1473.99 L 629.86 1472.00 L 634.21 1469.78 L 638.67 1468.11 L 643.26 1466.99 L 648.01 1466.41 L 652.97 1466.38 L 655.04 1466.74 L 656.93 1467.54 L 658.67 1468.81 L 660.13 1470.41 L 661.27 1472.32 L 662.09 1474.59 L 664.76 1484.15 L 667.91 1493.23 L 671.53 1501.83 L 675.61 1510.00 L 680.16 1517.76 L 685.18 1525.12 L 690.68 1532.12 L 696.67 1538.75 L 703.17 1545.04 L 710.20 1550.99 L 717.78 1556.61 L 725.95 1561.89 L 734.73 1566.84" fill="none" group-id="1" id="路径" node-id="52" stroke="#949182" stroke-linecap="butt" stroke-width="1" target-height="341.08997" target-width="508.62997" target-x="226.1" target-y="1225.75"></path><path d="M 434.56 1252.69 L 447.94 1309.08 L 448.69 1311.05 L 449.89 1312.75 L 451.59 1314.21 L 453.58 1315.29 L 455.84 1315.96 L 458.43 1316.22 L 565.57 1315.61 L 568.15 1315.36 L 570.42 1314.71 L 572.44 1313.67 L 574.19 1312.24 L 575.49 1310.57 L 576.37 1308.62 L 594.15 1252.69" fill="none" group-id="1" id="路径" node-id="53" stroke="#84a8b8" stroke-linecap="butt" stroke-width="1" target-height="63.53003" target-width="159.59003" target-x="434.56" target-y="1252.69"></path><path d="M 327.72 482.43 L 335.37 479.50 L 342.46 477.24 L 349.04 475.61 L 355.72 474.40 L 362.14 473.66 L 368.31 473.38 L 374.49 473.48 L 380.67 473.90 L 386.85 474.66 L 396.17 476.25 L 406.01 478.34 L 427.12 483.34 L 429.86 483.77 L 432.40 483.84 L 434.77 483.57 L 437.05 482.94 L 438.99 482.00 L 440.64 480.75 L 442.96 478.32 L 444.65 475.79 L 445.78 473.15 L 446.38 470.34 L 446.45 467.33 L 445.96 464.04 L 445.24 462.02 L 444.14 460.12 L 442.61 458.32 L 440.81 456.77 L 438.69 455.44 L 436.24 454.31 L 426.24 450.89 L 416.31 448.08 L 406.42 445.88 L 396.57 444.28 L 386.74 443.25 L 376.91 442.80 L 367.07 442.92 L 357.19 443.62 L 347.27 444.90 L 337.29 446.77 L 327.23 449.24 L 317.08 452.33 L 314.59 453.36 L 312.40 454.60 L 310.47 456.06 L 308.77 457.77 L 307.44 459.61 L 306.44 461.60 L 305.23 465.31 L 304.72 468.58 L 304.80 471.49 L 305.43 474.12 L 306.59 476.53 L 308.33 478.79 L 310.72 480.90 L 313.89 482.88 L 315.79 483.62 L 317.90 484.04 L 320.26 484.14 L 322.63 483.90 L 325.10 483.34 L 327.72 482.43" fill="none" group-id="1" id="路径" node-id="54" stroke="#99806d" stroke-linecap="butt" stroke-width="1" target-height="41.340027" target-width="141.73001" target-x="304.72" target-y="442.8"></path><path d="M 604.94 482.43 L 612.02 479.51 L 618.71 477.25 L 625.04 475.60 L 631.47 474.39 L 637.72 473.65 L 643.80 473.35 L 649.89 473.43 L 655.99 473.83 L 662.09 474.56 L 671.27 476.10 L 680.82 478.11 L 700.84 482.88 L 703.46 483.32 L 705.96 483.45 L 708.38 483.28 L 710.76 482.82 L 712.95 482.08 L 714.98 481.06 L 719.27 478.15 L 722.39 475.63 L 724.55 473.43 L 725.96 471.51 L 727.01 469.27 L 727.38 467.29 L 727.17 465.48 L 726.40 463.75 L 725.21 462.22 L 723.54 460.69 L 721.28 459.17 L 718.30 457.67 L 714.29 456.08 L 709.45 454.57 L 703.67 453.15 L 694.74 451.48 L 684.50 450.09 L 673.94 449.08 L 662.80 448.37 L 651.59 447.98 L 640.56 447.88 L 629.71 448.06 L 619.79 448.50 L 610.31 449.22 L 602.49 450.13 L 595.38 451.36 L 590.65 452.64 L 588.18 453.67 L 586.01 454.94 L 584.12 456.45 L 582.48 458.23 L 581.23 460.14 L 580.32 462.21 L 579.43 465.63 L 579.11 468.65 L 579.30 471.36 L 579.95 473.82 L 581.06 476.08 L 582.65 478.17 L 584.79 480.13 L 587.57 481.96 L 591.11 483.64 L 593.10 484.24 L 595.26 484.53 L 597.63 484.49 L 599.98 484.13 L 602.41 483.45 L 604.94 482.43" fill="none" group-id="1" id="路径" node-id="55" stroke="#99806d" stroke-linecap="butt" stroke-width="1" target-height="36.649994" target-width="148.27002" target-x="579.11" target-y="447.88"></path><path d="M 349.91 580.46 L 350.28 586.34 L 351.08 591.26 L 352.24 595.35 L 353.72 598.73 L 355.48 601.50 L 357.51 603.75 L 359.82 605.54 L 362.46 606.91 L 365.47 607.85 L 368.92 608.35 L 372.90 608.35 L 377.50 607.77 L 382.82 606.52 L 388.97 604.47 L 390.87 603.53 L 392.55 602.24 L 394.02 600.58 L 395.18 598.67 L 396.03 596.54 L 396.57 594.14 L 397.47 589.16 L 398.79 584.97 L 400.46 581.47 L 402.48 578.55 L 404.84 576.14 L 407.57 574.20 L 410.70 572.70 L 414.31 571.64 L 418.49 571.07 L 423.32 571.03 L 425.78 570.97 L 427.93 570.65 L 429.79 570.09 L 431.53 569.24 L 432.78 568.24 L 433.65 567.08 L 435.08 563.81 L 435.82 560.98 L 436.00 558.49 L 435.69 556.28 L 434.90 554.14 L 433.70 552.18 L 432.04 550.34 L 429.85 548.64 L 426.64 546.81 L 422.72 545.18 L 417.98 543.76 L 413.15 542.70 L 407.81 541.86 L 401.92 541.23 L 392.99 540.74 L 383.52 540.67 L 374.00 541.00 L 364.62 541.67 L 355.41 542.65 L 347.05 543.84 L 339.10 545.28 L 332.67 546.77 L 326.91 548.51 L 323.31 550.06 L 321.30 551.48 L 319.75 553.12 L 318.61 555.00 L 317.89 557.08 L 317.69 559.16 L 317.99 561.31 L 319.15 564.62 L 320.64 567.36 L 322.46 569.62 L 324.62 571.47 L 327.16 572.91 L 330.14 573.97 L 333.64 574.61 L 337.76 574.77 L 342.61 574.38 L 343.99 574.35 L 345.32 574.60 L 346.57 575.11 L 347.69 575.86 L 348.63 576.82 L 349.32 577.93 L 349.75 579.15 L 349.91 580.46" fill="none" group-id="1" id="路径" node-id="56" stroke="#957e6b" stroke-linecap="butt" stroke-width="1" target-height="67.67999" target-width="118.31" target-x="317.69" target-y="540.67"></path><path d="M 682.30 574.53 L 701.75 569.67 L 706.70 568.16 L 709.98 566.69 L 712.02 565.26 L 713.16 563.90 L 713.65 562.56 L 713.60 561.14 L 712.93 559.54 L 711.45 557.65 L 708.82 555.38 L 704.64 552.64 L 699.60 549.95 L 694.44 547.61 L 689.15 545.62 L 683.72 543.98 L 676.35 542.27 L 668.96 541.09 L 661.54 540.43 L 654.09 540.22 L 646.87 540.42 L 639.87 541.02 L 632.90 542.00 L 626.44 543.26 L 620.46 544.79 L 614.56 546.66 L 609.46 548.66 L 605.08 550.75 L 600.89 553.23 L 597.76 555.63 L 595.49 557.94 L 594.13 559.94 L 593.39 561.81 L 593.17 563.60 L 593.45 565.37 L 594.19 566.98 L 595.53 568.61 L 597.64 570.31 L 600.73 572.09 L 603.77 573.39 L 607.72 574.68 L 612.76 575.93 L 619.07 577.11 L 620.91 577.68 L 622.43 578.64 L 623.71 580.03 L 624.61 581.69 L 625.10 583.53 L 625.15 585.62 L 625.06 588.79 L 625.36 591.65 L 626.03 594.27 L 627.06 596.68 L 628.93 599.65 L 631.25 602.24 L 634.04 604.48 L 637.15 606.30 L 640.51 607.72 L 644.13 608.74 L 647.86 609.33 L 651.58 609.46 L 655.33 609.15 L 659.00 608.38 L 662.44 607.13 L 665.66 605.41 L 667.88 603.81 L 669.85 601.92 L 671.60 599.74 L 673.14 597.21 L 674.29 594.57 L 675.13 591.57 L 675.64 588.15 L 675.76 584.26 L 675.92 581.95 L 676.49 579.90 L 677.46 578.06 L 678.80 576.48 L 680.40 575.31 L 682.30 574.53" fill="none" group-id="1" id="路径" node-id="57" stroke="#957e6b" stroke-linecap="butt" stroke-width="1" target-height="69.24005" target-width="120.48004" target-x="593.17" target-y="540.22"></path><path d="M 448.55 785.49 L 456.69 790.76 L 464.64 795.25 L 472.42 799.01 L 480.04 802.08 L 487.53 804.49 L 494.91 806.27 L 502.20 807.46 L 509.41 808.06 L 516.58 808.09 L 523.72 807.55 L 530.86 806.43 L 538.02 804.73 L 545.22 802.43 L 552.48 799.50 L 559.81 795.91 L 567.24 791.62 L 574.78 786.59 L 582.45 780.77 L 584.83 778.56 L 586.38 776.46 L 587.27 774.42 L 587.58 772.41 L 587.36 770.34 L 586.55 768.16 L 585.46 766.50 L 583.93 765.07 L 581.90 763.84 L 579.66 762.98 L 577.13 762.44 L 574.24 762.23 L 456.15 761.62 L 448.26 761.84 L 442.56 762.47 L 438.58 763.37 L 435.92 764.44 L 434.22 765.61 L 433.24 766.86 L 432.81 768.23 L 432.90 769.81 L 433.62 771.72 L 435.18 774.11 L 437.92 777.10 L 442.23 780.84 L 448.55 785.49" fill="none" group-id="1" id="路径" node-id="58" stroke="#f1dac5" stroke-linecap="butt" stroke-width="1" target-height="46.47003" target-width="154.77002" target-x="432.81" target-y="761.62"></path><path d="M 309.18 1317.28 L 302.31 1320.82 L 297.17 1324.06 L 293.46 1327.01 L 290.89 1329.71 L 289.24 1332.20 L 288.33 1334.52 L 288.03 1336.75 L 288.32 1338.96 L 289.22 1341.23 L 290.83 1343.61 L 293.34 1346.16 L 296.97 1348.90 L 301.97 1351.87 L 308.67 1355.05 L 317.38 1358.47" fill="none" group-id="1" id="路径" node-id="59" stroke="#8f8b7c" stroke-linecap="butt" stroke-width="1" target-height="41.18994" target-width="29.350006" target-x="288.03" target-y="1317.28"></path><path d="M 317.38 1358.47 L 321.01 1366.31 L 324.27 1372.13 L 327.21 1376.32 L 329.86 1379.19 L 332.25 1381.03 L 334.44 1382.06 L 336.50 1382.43 L 338.52 1382.23 L 340.57 1381.41 L 342.72 1379.88 L 345.03 1377.42 L 347.52 1373.81 L 350.21 1368.72 L 353.10 1361.81 L 354.03 1359.85 L 355.26 1358.03 L 356.80 1356.34 L 358.57 1354.87 L 360.57 1353.61 L 362.83 1352.54 L 366.60 1350.79 L 369.94 1348.64 L 372.88 1346.07 L 375.45 1343.05 L 377.67 1339.56 L 379.54 1335.52 L 380.00 1333.62 L 379.91 1331.68 L 379.31 1329.79 L 378.23 1328.00 L 376.75 1326.46 L 374.83 1325.19 L 372.37 1323.70 L 369.73 1321.73 L 366.89 1319.23 L 362.84 1315.16 L 358.64 1310.45 L 350.63 1300.60 L 343.40 1291.43 L 340.10 1287.49 L 337.51 1284.71 L 335.69 1283.12 L 334.40 1282.37 L 333.49 1282.17 L 331.79 1282.55 L 330.08 1283.47 L 328.31 1285.04 L 326.84 1286.92 L 325.52 1289.23 L 324.37 1292.05 L 322.19 1297.72 L 319.59 1303.06 L 316.56 1308.09 L 313.09 1312.82 L 309.18 1317.28" fill="none" group-id="1" id="路径" node-id="60" stroke="#949182" stroke-linecap="butt" stroke-width="1" target-height="100.26001" target-width="70.82001" target-x="309.18" target-y="1282.17"></path><path d="M 317.38 1358.47 L 324.98 1350.87" fill="none" group-id="1" id="路径" node-id="61" stroke="#4b463d" stroke-linecap="butt" stroke-width="1" target-height="7.5999756" target-width="7.600006" target-x="317.38" target-y="1350.87"></path><path d="M 324.98 1350.87 L 331.19 1351.79 L 336.36 1352.04 L 340.65 1351.72 L 344.19 1350.94 L 347.12 1349.76 L 349.53 1348.20 L 351.49 1346.28 L 353.06 1343.95 L 354.25 1341.14 L 355.02 1337.76 L 355.33 1333.71 L 355.08 1328.83 L 354.64 1326.38 L 353.86 1324.12 L 352.74 1322.02 L 351.31 1320.11 L 349.61 1318.49 L 347.63 1317.13 L 343.74 1315.13 L 340.13 1313.83 L 336.77 1313.15 L 333.60 1313.02 L 330.57 1313.43 L 327.63 1314.35 L 324.75 1315.83 L 321.89 1317.91 L 319.03 1320.69 L 316.17 1324.27" fill="none" group-id="1" id="路径" node-id="62" stroke="#949182" stroke-linecap="butt" stroke-width="1" target-height="39.02002" target-width="39.159973" target-x="316.17" target-y="1313.02"></path><path d="M 316.17 1324.27 L 309.18 1317.28" fill="none" group-id="1" id="路径" node-id="63" stroke="#4b463d" stroke-linecap="butt" stroke-width="1" target-height="6.98999" target-width="6.9900208" target-x="309.18" target-y="1317.28"></path><path d="M 324.98 1350.87 L 316.17 1324.27" fill="none" group-id="1" id="路径" node-id="64" stroke="#8f8b7c" stroke-linecap="butt" stroke-width="1" target-height="26.599976" target-width="8.809998" target-x="316.17" target-y="1324.27"></path><path d="M 708.14 1320.47 L 705.50 1308.90 L 702.98 1300.23 L 700.60 1293.93 L 698.38 1289.52 L 696.32 1286.59 L 694.42 1284.77 L 692.64 1283.79 L 690.90 1283.46 L 689.12 1283.72 L 687.18 1284.67 L 685.00 1286.49 L 682.51 1289.49 L 679.67 1294.03 L 676.42 1300.54 L 672.72 1309.53 L 671.74 1311.68 L 670.50 1313.62 L 668.98 1315.36 L 667.23 1316.88 L 665.30 1318.12 L 663.15 1319.11 L 654.88 1322.56 L 648.95 1325.58 L 644.88 1328.20 L 642.24 1330.48 L 640.68 1332.47 L 639.91 1334.23 L 639.77 1335.86 L 640.20 1337.46 L 641.28 1339.11 L 643.20 1340.88 L 646.27 1342.79 L 650.86 1344.85 L 657.38 1347.05 L 666.34 1349.35 L 668.45 1350.08 L 670.32 1351.15 L 671.96 1352.56 L 673.32 1354.25 L 674.33 1356.16 L 675.00 1358.32 L 676.80 1365.98 L 678.63 1371.67 L 680.44 1375.76 L 682.20 1378.59 L 683.91 1380.45 L 685.57 1381.55 L 687.24 1382.07 L 688.98 1382.05 L 690.89 1381.45 L 693.05 1380.16 L 695.54 1377.94 L 698.44 1374.52 L 701.81 1369.57 L 705.71 1362.73 L 707.73 1359.54 L 710.18 1356.84 L 712.05 1355.30 L 714.05 1354.02 L 716.19 1353.00 L 723.94 1349.81 L 726.20 1348.69 L 728.20 1347.36 L 729.97 1345.81 L 731.50 1344.04 L 732.73 1342.14 L 733.67 1340.08 L 735.29 1334.77 L 736.08 1330.52 L 736.24 1327.12 L 735.88 1324.42 L 735.10 1322.28 L 733.95 1320.57 L 732.40 1319.21 L 730.39 1318.19 L 727.79 1317.53 L 724.45 1317.29 L 720.20 1317.60 L 714.84 1318.60 L 708.14 1320.47" fill="none" group-id="1" id="路径" node-id="65" stroke="#8f8b7c" stroke-linecap="butt" stroke-width="1" target-height="98.609985" target-width="96.46997" target-x="639.77" target-y="1283.46"></path><path d="M 708.14 1320.47 L 702.17 1317.87 L 697.11 1316.21 L 692.84 1315.36 L 689.22 1315.15 L 686.14 1315.50 L 683.51 1316.32 L 681.23 1317.60 L 679.26 1319.36 L 677.56 1321.64 L 676.13 1324.56 L 675.00 1328.23 L 674.70 1330.49 L 674.81 1332.75 L 675.33 1335.05 L 676.21 1337.24 L 677.46 1339.32 L 679.11 1341.30 L 683.64 1345.54 L 687.45 1348.44 L 690.66 1350.28 L 693.37 1351.29 L 695.69 1351.62 L 697.71 1351.41 L 699.54 1350.69 L 701.24 1349.42 L 702.83 1347.49 L 704.32 1344.73 L 705.66 1340.93 L 706.81 1335.82 L 707.67 1329.11 L 708.14 1320.47" fill="none" group-id="1" id="路径" node-id="66" stroke="#928d7e" stroke-linecap="butt" stroke-width="1" target-height="36.46997" target-width="33.440002" target-x="674.7" target-y="1315.15"></path><path d="M 446.87 1408.02 L 446.59 1403.99 L 445.82 1400.20 L 444.57 1396.60 L 442.86 1393.20 L 440.77 1390.10 L 438.28 1387.28 L 435.46 1384.79 L 432.36 1382.70 L 428.96 1380.99 L 425.36 1379.73 L 421.57 1378.96 L 417.54 1378.68 L 413.66 1378.94 L 409.93 1379.69 L 406.32 1380.92 L 402.89 1382.60 L 399.73 1384.72 L 396.80 1387.28 L 394.24 1390.20 L 392.13 1393.37 L 390.44 1396.79 L 389.21 1400.41 L 388.47 1404.14 L 388.21 1408.02 L 388.47 1411.90 L 389.21 1415.63 L 390.44 1419.24 L 392.13 1422.67 L 394.24 1425.83 L 396.80 1428.76 L 399.73 1431.32 L 402.89 1433.43 L 406.32 1435.12 L 409.93 1436.35 L 413.66 1437.09 L 417.54 1437.35 L 421.57 1437.07 L 425.36 1436.30 L 428.96 1435.05 L 432.36 1433.33 L 435.46 1431.24 L 438.28 1428.76 L 440.77 1425.94 L 442.86 1422.84 L 444.57 1419.44 L 445.82 1415.84 L 446.59 1412.05 L 446.87 1408.02" fill="none" group-id="1" id="路径" node-id="67" stroke="#8f8b7c" stroke-linecap="butt" stroke-width="1" target-height="58.66992" target-width="58.660004" target-x="388.21" target-y="1378.68"></path><path d="M 637.16 1408.02 L 636.89 1404.11 L 636.14 1400.44 L 634.93 1396.95 L 633.27 1393.66 L 631.24 1390.65 L 628.84 1387.92 L 626.10 1385.52 L 623.10 1383.49 L 619.80 1381.83 L 616.32 1380.61 L 612.64 1379.87 L 608.74 1379.60 L 604.83 1379.87 L 601.16 1380.61 L 597.68 1381.83 L 594.38 1383.49 L 591.37 1385.51 L 588.64 1387.92 L 586.24 1390.65 L 584.21 1393.66 L 582.55 1396.95 L 581.34 1400.44 L 580.59 1404.11 L 580.32 1408.02 L 580.57 1411.78 L 581.29 1415.39 L 582.48 1418.89 L 584.11 1422.21 L 586.16 1425.28 L 588.64 1428.11 L 591.48 1430.59 L 594.54 1432.64 L 597.86 1434.28 L 601.36 1435.47 L 604.98 1436.19 L 608.74 1436.44 L 612.64 1436.17 L 616.32 1435.42 L 619.80 1434.21 L 623.10 1432.55 L 626.10 1430.52 L 628.84 1428.11 L 631.24 1425.38 L 633.27 1422.38 L 634.93 1419.08 L 636.14 1415.60 L 636.89 1411.92 L 637.16 1408.02" fill="none" group-id="1" id="路径" node-id="68" stroke="#8f8b7c" stroke-linecap="butt" stroke-width="1" target-height="56.839966" target-width="56.839966" target-x="580.32" target-y="1379.6"></path><path d="M 753.73 122.98 L 730.33 146.39 L 715.20 141.23 L 703.38 136.69 L 694.33 132.70 L 687.60 129.21 L 682.76 126.17 L 668.92 116.81 L 655.30 108.31 L 641.86 100.65 L 628.61 93.78 L 615.53 87.68 L 602.61 82.31 L 589.83 77.66 L 577.18 73.71 L 564.65 70.42 L 552.21 67.79 L 539.87 65.80 L 527.59 64.44 L 515.38 63.70 L 503.20 63.57 L 491.05 64.06 L 478.91 65.16 L 466.77 66.88 L 454.60 69.22 L 442.41 72.21 L 430.16 75.84 L 417.85 80.13 L 405.47 85.11 L 393.00 90.79 L 380.43 97.20 L 367.75 104.37 L 354.95 112.32 L 342.01 121.09 L 328.94 130.71 L 315.71 141.22 L 278.78 119.18 L 285.10 109.91 L 291.65 101.08 L 298.43 92.69 L 305.43 84.72 L 312.66 77.16 L 320.12 70.00 L 329.56 61.74 L 339.24 54.04 L 349.17 46.90 L 359.37 40.30 L 369.84 34.23 L 380.62 28.64 L 391.57 23.58 L 402.70 19.02 L 414.03 14.98 L 425.56 11.45 L 437.23 8.41 L 448.99 5.87 L 460.86 3.83 L 472.83 2.27 L 484.92 1.20 L 497.03 0.63 L 509.14 0.52 L 521.26 0.90 L 533.40 1.75 L 545.57 3.07 L 557.65 4.87 L 569.65 7.11 L 581.55 9.82 L 593.38 12.99 L 605.13 16.62 L 616.73 20.70 L 628.13 25.21 L 639.34 30.16 L 650.38 35.56 L 661.25 41.41 L 671.87 47.68 L 682.21 54.37 L 692.26 61.48 L 702.05 69.02 L 711.58 77.01 L 720.73 85.37 L 729.52 94.13 L 737.94 103.32 L 746.01 112.93 L 753.73 122.98 Z" fill="#504c43" fill-rule="nonzero" group-id="1" id="路径" node-id="69" stroke="none" target-height="145.87" target-width="474.94998" target-x="278.78" target-y="0.52"></path><path d="M 730.33 146.39 L 740.32 153.79 L 749.61 161.38 L 758.23 169.16 L 766.20 177.13 L 773.55 185.30 L 780.58 193.95 L 787.07 202.77 L 793.04 211.78 L 798.50 220.97 L 803.46 230.36 L 808.00 240.00 L 812.12 249.81 L 815.83 259.78 L 819.13 269.94 L 822.01 280.29 L 825.08 293.33 L 827.63 306.59 L 829.66 320.08 L 831.17 333.81 L 832.20 347.55 L 832.83 361.44 L 833.06 375.47 L 832.88 389.66 L 832.13 408.55 L 830.88 427.51 L 829.12 446.56 L 825.52 447.00 L 822.41 447.76 L 819.73 448.80 L 817.42 450.10 L 814.62 452.34 L 812.30 454.98 L 810.42 458.05 L 808.99 461.40 L 807.88 465.07 L 807.11 469.12 L 806.51 475.35 L 806.45 482.01 L 806.79 488.74 L 807.41 495.44 L 808.98 508.12 L 809.68 513.94 L 810.12 518.75 L 804.12 515.33 L 798.40 511.50 L 792.96 507.24 L 787.77 502.54 L 782.89 497.53 L 778.24 492.20 L 773.80 486.54 L 769.58 480.53 L 764.37 472.25 L 759.50 463.59 L 754.98 454.54 L 750.82 445.31 L 746.96 435.93 L 743.41 426.41 L 738.56 412.04 L 734.30 397.97 L 730.45 384.04 L 727.09 371.05 L 721.21 347.46 L 720.70 346.21 L 719.94 345.14 L 718.97 344.27 L 717.82 343.66 L 716.57 343.37 L 715.35 343.40 L 714.19 343.76 L 713.15 344.42 L 697.04 359.01 L 695.36 360.14 L 693.63 360.78 L 691.79 360.97 L 689.98 360.72 L 688.35 360.03 L 686.86 358.86 L 642.33 311.14 L 641.21 310.18 L 639.92 309.53 L 638.54 309.19 L 637.13 309.19 L 635.79 309.56 L 634.67 310.23 L 633.79 311.17 L 633.21 312.36 L 625.46 336.52 L 624.66 338.51 L 623.87 339.57 L 623.08 340.04 L 622.22 340.05 L 621.18 339.57 L 619.83 338.34 L 610.42 327.86 L 601.02 318.26 L 591.64 309.50 L 582.26 301.55 L 572.88 294.37 L 563.50 287.92 L 554.10 282.17 L 544.68 277.09 L 535.22 272.67 L 525.71 268.86 L 516.13 265.68 L 506.48 263.08 L 496.73 261.08 L 486.86 259.67 L 476.86 258.84 L 466.72 258.60 L 456.40 258.96 L 445.90 259.93 L 435.19 261.52 L 424.25 263.76 L 413.06 266.67 L 401.61 270.28 L 389.87 274.61 L 377.82 279.71 L 365.45 285.62 L 352.73 292.36 L 339.66 299.99 L 326.20 308.56 L 321.05 312.33 L 316.58 316.35 L 312.72 320.63 L 309.44 325.19 L 306.71 330.04 L 304.50 335.22 L 302.83 340.76 L 301.69 346.70 L 301.12 353.09 L 300.37 364.76 L 299.04 376.15 L 297.13 387.27 L 294.66 398.16 L 291.63 408.81 L 288.02 419.25 L 283.85 429.50 L 279.09 439.57 L 273.74 449.47 L 267.79 459.21 L 261.21 468.80 L 253.99 478.25 L 246.10 487.58 L 237.51 496.77 L 228.20 505.85 L 218.14 514.80 L 217.92 503.94 L 217.13 493.85 L 215.82 484.47 L 214.00 475.75 L 211.71 467.64 L 208.97 460.10 L 205.79 453.09 L 202.18 446.56 L 199.27 431.89 L 196.95 417.34 L 195.22 402.91 L 194.06 388.58 L 193.47 374.35 L 193.45 360.19 L 193.99 346.11 L 195.09 332.09 L 196.75 318.11 L 198.98 304.17 L 201.77 290.26 L 205.13 276.37 L 209.08 262.48 L 213.61 248.59 L 218.74 234.69 L 223.06 224.55 L 227.76 215.05 L 232.85 206.14 L 238.33 197.80 L 244.18 190.00 L 250.41 182.72 L 257.04 175.92 L 264.07 169.61 L 271.51 163.75 L 279.39 158.35 L 287.72 153.40 L 296.54 148.89 L 305.86 144.83 L 315.71 141.22 L 328.94 130.71 L 342.01 121.09 L 354.95 112.32 L 367.75 104.37 L 380.43 97.20 L 393.00 90.79 L 405.47 85.11 L 417.85 80.13 L 430.16 75.84 L 442.41 72.21 L 454.60 69.22 L 466.77 66.88 L 478.91 65.16 L 491.05 64.06 L 503.20 63.57 L 515.38 63.70 L 527.59 64.44 L 539.87 65.80 L 552.21 67.79 L 564.65 70.42 L 577.18 73.71 L 589.83 77.66 L 602.61 82.31 L 615.53 87.68 L 628.61 93.78 L 641.86 100.65 L 655.30 108.31 L 668.92 116.81 L 682.76 126.17 L 687.60 129.21 L 694.33 132.70 L 703.38 136.69 L 715.20 141.23 L 730.33 146.39 Z" fill="#389349" fill-rule="nonzero" group-id="1" id="路径" node-id="70" stroke="none" target-height="455.18" target-width="639.61" target-x="193.45" target-y="63.57"></path><path d="M 278.78 119.18 L 315.71 141.22 L 305.86 144.83 L 296.54 148.89 L 287.72 153.40 L 279.39 158.35 L 271.51 163.75 L 264.07 169.61 L 257.04 175.92 L 250.41 182.72 L 244.18 190.00 L 238.33 197.80 L 232.85 206.14 L 227.76 215.05 L 223.06 224.55 L 218.74 234.69 L 213.61 248.59 L 209.08 262.48 L 205.13 276.37 L 201.77 290.26 L 198.98 304.17 L 196.75 318.11 L 195.09 332.09 L 193.99 346.11 L 193.45 360.19 L 193.47 374.35 L 194.06 388.58 L 195.22 402.91 L 196.95 417.34 L 199.27 431.89 L 202.18 446.56 L 197.11 448.41 L 192.26 449.55 L 187.58 450.02 L 183.04 449.86 L 178.59 449.07 L 174.19 447.66 L 169.80 445.57 L 165.40 442.76 L 163.63 426.96 L 162.27 411.30 L 161.30 395.76 L 160.72 380.35 L 160.59 364.88 L 160.95 349.63 L 161.82 334.59 L 163.18 319.76 L 164.68 307.88 L 166.56 296.19 L 168.82 284.68 L 171.47 273.34 L 174.50 262.16 L 177.97 251.08 L 181.89 240.21 L 186.26 229.54 L 191.09 219.05 L 196.39 208.75 L 202.13 198.74 L 208.40 188.94 L 215.22 179.33 L 222.61 169.92 L 230.58 160.69 L 238.86 151.99 L 247.79 143.49 L 257.40 135.19 L 267.72 127.08 L 278.78 119.18 Z" fill="#34322b" fill-rule="nonzero" group-id="1" id="路径" node-id="71" stroke="none" target-height="330.84" target-width="155.12" target-x="160.59" target-y="119.18"></path><path d="M 753.73 122.98 L 763.08 130.66 L 771.80 138.32 L 779.92 145.95 L 787.46 153.56 L 794.45 161.15 L 802.94 171.18 L 810.67 181.23 L 817.68 191.32 L 823.98 201.44 L 829.83 211.93 L 835.09 222.53 L 839.79 233.24 L 843.92 244.07 L 847.58 255.09 L 850.78 266.30 L 853.54 277.69 L 855.86 289.29 L 857.75 300.92 L 859.31 312.80 L 860.52 324.93 L 861.38 337.32 L 862.05 353.82 L 862.29 370.84 L 862.07 388.40 L 861.11 414.92 L 859.51 442.76 L 829.12 446.56 L 830.88 427.51 L 832.13 408.55 L 832.88 389.66 L 833.06 375.47 L 832.83 361.44 L 832.20 347.55 L 831.17 333.81 L 829.66 320.08 L 827.63 306.59 L 825.08 293.33 L 822.01 280.29 L 819.13 269.94 L 815.83 259.78 L 812.12 249.81 L 808.00 240.00 L 803.46 230.36 L 798.50 220.97 L 793.04 211.77 L 787.07 202.77 L 780.58 193.95 L 773.55 185.30 L 766.20 177.13 L 758.23 169.16 L 749.61 161.38 L 740.32 153.79 L 730.33 146.39 L 753.73 122.98 Z" fill="#34322b" fill-rule="nonzero" group-id="1" id="路径" node-id="72" stroke="none" target-height="323.58" target-width="131.95996" target-x="730.33" target-y="122.98"></path><path d="M 810.12 518.75 L 810.12 697.33 L 807.65 694.26 L 805.12 691.95 L 802.51 690.30 L 799.79 689.24 L 796.91 688.74 L 793.82 688.79 L 790.44 689.45 L 786.71 690.80 L 784.83 691.84 L 783.12 693.23 L 781.59 695.02 L 780.35 697.04 L 779.37 699.31 L 778.66 701.89 L 775.21 716.31 L 771.26 730.19 L 766.80 743.56 L 761.85 756.44 L 756.42 768.84 L 750.49 780.79 L 744.09 792.31 L 737.20 803.41 L 729.81 814.12 L 721.93 824.43 L 713.54 834.37 L 704.64 843.94 L 695.20 853.16 L 685.21 862.02 L 674.66 870.53 L 663.52 878.71 L 651.78 886.53 L 639.40 894.01 L 626.37 901.15 L 624.22 902.50 L 622.35 904.02 L 620.73 905.74 L 619.36 907.65 L 618.30 909.66 L 617.55 911.79 L 611.93 933.82 L 596.40 937.23 L 580.95 940.03 L 565.58 942.23 L 550.27 943.84 L 535.00 944.86 L 519.78 945.30 L 504.59 945.15 L 489.41 944.43 L 474.24 943.12 L 459.07 941.23 L 443.89 938.75 L 428.68 935.68 L 413.44 932.00 L 411.39 926.72 L 408.69 920.98 L 406.60 917.22 L 404.23 913.59 L 401.57 910.09 L 398.62 906.86 L 395.39 904.03 L 391.86 901.60 L 379.47 893.99 L 367.67 886.05 L 356.42 877.77 L 345.72 869.17 L 335.55 860.24 L 325.89 850.97 L 316.72 841.35 L 308.04 831.39 L 299.83 821.08 L 292.09 810.39 L 284.81 799.33 L 277.98 787.88 L 271.61 776.02 L 265.69 763.75 L 260.21 751.03 L 255.20 737.87 L 250.65 724.23 L 246.56 710.10 L 244.80 704.63 L 242.82 700.28 L 240.66 696.88 L 238.35 694.28 L 235.87 692.35 L 233.20 691.03 L 230.30 690.26 L 227.09 690.05 L 223.50 690.46 L 219.43 691.58 L 214.79 693.53 L 218.14 514.80 L 228.20 505.85 L 237.51 496.77 L 246.10 487.58 L 253.99 478.25 L 261.21 468.80 L 267.79 459.21 L 273.74 449.47 L 279.09 439.57 L 283.85 429.50 L 288.02 419.25 L 291.63 408.81 L 294.66 398.16 L 297.13 387.27 L 299.04 376.15 L 300.37 364.76 L 301.12 353.09 L 301.69 346.70 L 302.83 340.76 L 304.50 335.22 L 306.71 330.04 L 309.44 325.19 L 312.72 320.63 L 316.58 316.35 L 321.05 312.33 L 326.20 308.56 L 339.66 299.99 L 352.73 292.36 L 365.45 285.62 L 377.82 279.71 L 389.87 274.61 L 401.61 270.28 L 413.06 266.67 L 424.25 263.76 L 435.19 261.52 L 445.90 259.93 L 456.40 258.96 L 466.72 258.60 L 476.86 258.84 L 486.86 259.67 L 496.73 261.08 L 506.48 263.08 L 516.13 265.68 L 525.71 268.86 L 535.22 272.67 L 544.68 277.09 L 554.10 282.17 L 563.50 287.92 L 572.88 294.37 L 582.26 301.55 L 591.64 309.50 L 601.02 318.26 L 610.42 327.86 L 619.83 338.34 L 621.18 339.57 L 622.22 340.05 L 623.08 340.04 L 623.87 339.57 L 624.66 338.51 L 625.46 336.52 L 633.21 312.36 L 633.79 311.17 L 634.67 310.23 L 635.79 309.56 L 637.13 309.19 L 638.54 309.19 L 639.92 309.53 L 641.21 310.18 L 642.33 311.14 L 686.86 358.86 L 688.35 360.03 L 689.98 360.72 L 691.79 360.97 L 693.63 360.78 L 695.36 360.14 L 697.04 359.01 L 713.15 344.42 L 714.19 343.76 L 715.35 343.40 L 716.57 343.37 L 717.82 343.66 L 718.97 344.27 L 719.94 345.14 L 720.70 346.21 L 721.21 347.46 L 727.09 371.05 L 730.45 384.04 L 734.30 397.97 L 738.56 412.04 L 743.41 426.41 L 746.96 435.93 L 750.82 445.31 L 754.98 454.54 L 759.50 463.59 L 764.37 472.25 L 769.58 480.53 L 773.80 486.54 L 778.24 492.20 L 782.89 497.53 L 787.77 502.54 L 792.96 507.24 L 798.40 511.50 L 804.12 515.33 L 810.12 518.75 Z M 327.72 482.43 L 335.37 479.50 L 342.46 477.24 L 349.04 475.61 L 355.72 474.40 L 362.14 473.66 L 368.31 473.38 L 374.49 473.48 L 380.67 473.90 L 386.85 474.66 L 396.17 476.25 L 406.01 478.34 L 427.12 483.34 L 429.86 483.77 L 432.40 483.84 L 434.77 483.57 L 437.05 482.94 L 438.99 482.00 L 440.64 480.75 L 442.96 478.32 L 444.65 475.79 L 445.78 473.15 L 446.38 470.34 L 446.45 467.33 L 445.96 464.04 L 445.24 462.02 L 444.14 460.12 L 442.61 458.32 L 440.81 456.77 L 438.69 455.44 L 436.24 454.31 L 426.24 450.89 L 416.31 448.08 L 406.42 445.88 L 396.57 444.28 L 386.74 443.25 L 376.91 442.80 L 367.07 442.92 L 357.19 443.62 L 347.27 444.90 L 337.29 446.77 L 327.23 449.24 L 317.08 452.33 L 314.59 453.36 L 312.40 454.60 L 310.47 456.06 L 308.77 457.77 L 307.44 459.61 L 306.44 461.60 L 305.23 465.31 L 304.72 468.58 L 304.80 471.49 L 305.43 474.12 L 306.59 476.53 L 308.33 478.79 L 310.72 480.90 L 313.89 482.88 L 315.79 483.62 L 317.90 484.04 L 320.26 484.14 L 322.63 483.90 L 325.10 483.34 L 327.72 482.43 L 327.72 482.43 Z M 604.94 482.43 L 612.02 479.51 L 618.71 477.25 L 625.04 475.60 L 631.47 474.39 L 637.72 473.65 L 643.80 473.35 L 649.89 473.43 L 655.99 473.83 L 662.09 474.56 L 671.27 476.10 L 680.82 478.11 L 700.84 482.88 L 703.46 483.32 L 705.96 483.45 L 708.38 483.28 L 710.76 482.82 L 712.95 482.08 L 714.98 481.06 L 719.27 478.15 L 722.39 475.63 L 724.55 473.43 L 725.96 471.51 L 727.01 469.27 L 727.38 467.29 L 727.17 465.48 L 726.40 463.75 L 725.21 462.22 L 723.54 460.69 L 721.28 459.17 L 718.30 457.67 L 714.29 456.08 L 709.45 454.57 L 703.67 453.15 L 694.74 451.48 L 684.50 450.09 L 673.94 449.08 L 662.80 448.37 L 651.59 447.98 L 640.56 447.88 L 629.71 448.06 L 619.79 448.50 L 610.31 449.22 L 602.49 450.13 L 595.38 451.36 L 590.65 452.64 L 588.18 453.67 L 586.01 454.94 L 584.12 456.45 L 582.48 458.23 L 581.23 460.14 L 580.32 462.21 L 579.43 465.63 L 579.11 468.65 L 579.30 471.36 L 579.95 473.82 L 581.06 476.08 L 582.65 478.17 L 584.79 480.13 L 587.57 481.96 L 591.11 483.64 L 593.10 484.24 L 595.26 484.53 L 597.63 484.49 L 599.98 484.13 L 602.41 483.45 L 604.94 482.43 L 604.94 482.43 Z M 349.91 580.46 L 350.28 586.34 L 351.08 591.26 L 352.24 595.35 L 353.72 598.73 L 355.48 601.50 L 357.51 603.75 L 359.82 605.54 L 362.46 606.91 L 365.47 607.85 L 368.92 608.35 L 372.90 608.35 L 377.50 607.77 L 382.82 606.52 L 388.97 604.47 L 390.87 603.53 L 392.55 602.24 L 394.02 600.58 L 395.18 598.67 L 396.03 596.54 L 396.57 594.14 L 397.47 589.16 L 398.79 584.97 L 400.46 581.47 L 402.48 578.55 L 404.84 576.14 L 407.57 574.20 L 410.70 572.70 L 414.31 571.64 L 418.49 571.07 L 423.32 571.03 L 425.78 570.97 L 427.93 570.65 L 429.79 570.09 L 431.53 569.24 L 432.78 568.24 L 433.65 567.08 L 435.08 563.81 L 435.82 560.98 L 436.00 558.49 L 435.69 556.28 L 434.90 554.14 L 433.70 552.18 L 432.04 550.34 L 429.85 548.64 L 426.64 546.81 L 422.72 545.18 L 417.98 543.76 L 413.15 542.70 L 407.81 541.86 L 401.92 541.23 L 392.99 540.74 L 383.52 540.67 L 374.00 541.00 L 364.62 541.67 L 355.41 542.65 L 347.05 543.84 L 339.10 545.28 L 332.67 546.77 L 326.91 548.51 L 323.31 550.06 L 321.30 551.48 L 319.75 553.12 L 318.61 555.00 L 317.89 557.08 L 317.69 559.16 L 317.99 561.31 L 319.15 564.62 L 320.64 567.36 L 322.46 569.62 L 324.62 571.47 L 327.16 572.91 L 330.14 573.97 L 333.64 574.61 L 337.76 574.77 L 342.61 574.38 L 343.99 574.35 L 345.32 574.60 L 346.57 575.11 L 347.69 575.86 L 348.63 576.82 L 349.32 577.93 L 349.75 579.15 L 349.91 580.46 L 349.91 580.46 Z M 682.30 574.53 L 701.75 569.67 L 706.70 568.16 L 709.98 566.69 L 712.02 565.26 L 713.16 563.90 L 713.65 562.56 L 713.60 561.14 L 712.93 559.54 L 711.45 557.65 L 708.82 555.38 L 704.64 552.64 L 699.60 549.95 L 694.44 547.61 L 689.15 545.62 L 683.72 543.98 L 676.35 542.27 L 668.96 541.09 L 661.54 540.43 L 654.09 540.22 L 646.87 540.42 L 639.87 541.02 L 632.90 542.00 L 626.44 543.26 L 620.46 544.79 L 614.56 546.66 L 609.46 548.66 L 605.08 550.75 L 600.89 553.23 L 597.76 555.63 L 595.49 557.94 L 594.13 559.94 L 593.39 561.81 L 593.17 563.60 L 593.45 565.37 L 594.19 566.98 L 595.53 568.61 L 597.64 570.31 L 600.73 572.09 L 603.77 573.39 L 607.72 574.68 L 612.76 575.93 L 619.07 577.11 L 620.91 577.68 L 622.43 578.64 L 623.71 580.03 L 624.61 581.69 L 625.10 583.53 L 625.15 585.62 L 625.06 588.79 L 625.36 591.65 L 626.03 594.27 L 627.06 596.68 L 628.93 599.65 L 631.25 602.24 L 634.04 604.48 L 637.15 606.30 L 640.51 607.72 L 644.13 608.74 L 647.86 609.33 L 651.58 609.46 L 655.33 609.15 L 659.00 608.38 L 662.44 607.13 L 665.66 605.41 L 667.88 603.81 L 669.85 601.92 L 671.60 599.74 L 673.14 597.21 L 674.29 594.57 L 675.13 591.57 L 675.64 588.15 L 675.76 584.26 L 675.92 581.95 L 676.49 579.90 L 677.46 578.06 L 678.80 576.48 L 680.40 575.31 L 682.30 574.53 Z M 448.55 785.49 L 456.69 790.76 L 464.64 795.25 L 472.42 799.01 L 480.04 802.08 L 487.53 804.49 L 494.91 806.27 L 502.20 807.46 L 509.41 808.06 L 516.58 808.09 L 523.72 807.55 L 530.86 806.43 L 538.02 804.73 L 545.22 802.43 L 552.48 799.50 L 559.81 795.91 L 567.24 791.62 L 574.78 786.59 L 582.45 780.77 L 584.83 778.56 L 586.38 776.46 L 587.27 774.42 L 587.58 772.41 L 587.36 770.34 L 586.55 768.16 L 585.46 766.50 L 583.93 765.07 L 581.90 763.84 L 579.66 762.98 L 577.13 762.44 L 574.24 762.23 L 456.15 761.62 L 448.26 761.84 L 442.56 762.47 L 438.58 763.37 L 435.92 764.44 L 434.22 765.61 L 433.24 766.86 L 432.81 768.23 L 432.90 769.81 L 433.62 771.72 L 435.18 774.11 L 437.92 777.10 L 442.23 780.84 L 448.55 785.49 Z" fill="#f6c9aa" fill-rule="nonzero" group-id="1" id="形状" node-id="73" stroke="none" target-height="686.69995" target-width="595.33" target-x="214.79" target-y="258.6"></path><path d="M 165.40 442.76 L 169.80 445.57 L 174.19 447.66 L 178.59 449.07 L 183.04 449.86 L 187.58 450.02 L 192.26 449.55 L 197.11 448.41 L 202.18 446.56 L 205.79 453.09 L 208.97 460.10 L 211.71 467.64 L 214.00 475.75 L 215.82 484.47 L 217.13 493.85 L 217.92 503.94 L 218.14 514.80 L 214.79 693.53 L 215.33 702.71 L 215.25 711.66 L 214.57 720.41 L 213.29 728.98 L 211.42 737.40 L 208.95 745.69 L 205.87 753.86 L 202.18 761.93 L 199.03 758.72 L 196.02 756.41 L 193.12 754.86 L 190.29 753.96 L 187.48 753.65 L 184.63 753.91 L 181.69 754.78 L 178.60 756.32 L 175.31 758.66 L 171.78 761.93 L 141.38 708.73 L 144.25 690.91 L 146.55 673.13 L 148.29 655.39 L 149.46 637.67 L 150.07 619.97 L 150.12 602.27 L 149.62 584.58 L 148.55 566.87 L 146.93 549.15 L 144.74 531.41 L 141.98 513.62 L 138.65 495.80 L 143.23 490.39 L 147.57 484.35 L 151.67 477.63 L 155.52 470.17 L 159.10 461.91 L 162.40 452.80 L 165.40 442.76 Z" fill="#504c43" fill-rule="nonzero" group-id="1" id="路径" node-id="74" stroke="none" target-height="319.16998" target-width="79.490005" target-x="138.65" target-y="442.76"></path><path d="M 859.51 442.76 L 863.12 448.04 L 866.04 453.37 L 868.30 458.75 L 869.94 464.23 L 870.98 469.81 L 871.42 475.55 L 871.26 481.46 L 870.46 487.59 L 870.40 488.74 L 870.61 489.85 L 871.07 490.88 L 871.77 491.79 L 872.66 492.52 L 873.68 493.00 L 874.78 493.24 L 875.93 493.22 L 879.59 492.96 L 883.24 493.16 L 886.89 493.81 L 890.58 494.94 L 894.32 496.56 L 894.32 499.15 L 892.06 499.52 L 889.93 500.28 L 887.91 501.43 L 885.97 503.03 L 884.11 505.12 L 882.19 507.91 L 880.35 511.29 L 878.60 515.34 L 876.97 520.15 L 875.26 526.53 L 873.74 533.81 L 872.43 542.08 L 871.03 554.74 L 870.06 568.77 L 869.54 583.12 L 869.37 598.05 L 869.53 613.03 L 869.93 627.78 L 870.53 642.31 L 871.26 655.80 L 872.91 679.97 L 874.41 698.13 L 875.32 708.13 L 870.46 734.57 L 869.85 736.91 L 868.99 738.85 L 867.88 740.45 L 866.48 741.75 L 865.02 742.50 L 863.47 742.78 L 816.50 741.71 L 815.13 741.53 L 813.83 741.03 L 812.65 740.25 L 811.59 739.17 L 810.75 737.88 L 810.13 736.42 L 809.77 734.86 L 809.66 733.20 L 810.12 697.33 L 810.12 518.75 L 809.68 513.94 L 808.98 508.12 L 807.41 495.44 L 806.79 488.74 L 806.45 482.01 L 806.51 475.35 L 807.11 469.12 L 807.88 465.07 L 808.99 461.40 L 810.42 458.05 L 812.30 454.98 L 814.62 452.34 L 817.42 450.10 L 819.73 448.80 L 822.41 447.76 L 825.52 447.00 L 829.12 446.56 L 859.51 442.76 Z" fill="#504c43" fill-rule="nonzero" group-id="1" id="路径" node-id="75" stroke="none" target-height="300.02002" target-width="87.869995" target-x="806.45" target-y="442.76"></path><path d="M 138.65 495.80 L 141.98 513.62 L 144.74 531.41 L 146.93 549.15 L 148.55 566.87 L 149.62 584.58 L 150.12 602.27 L 150.07 619.97 L 149.46 637.67 L 148.29 655.39 L 146.55 673.13 L 144.25 690.91 L 141.38 708.73 L 131.86 707.51 L 123.05 705.83 L 114.89 703.72 L 107.36 701.21 L 100.39 698.30 L 93.95 695.01 L 88.51 691.67 L 83.50 687.99 L 78.90 683.98 L 74.70 679.63 L 70.86 674.92 L 67.40 669.83 L 64.29 664.34 L 61.74 658.84 L 59.54 652.91 L 57.71 646.52 L 56.26 639.63 L 55.22 632.21 L 54.60 624.20 L 54.45 615.57 L 55.04 588.31 L 55.73 575.41 L 56.90 563.55 L 58.09 555.80 L 59.65 548.57 L 61.57 541.82 L 63.36 536.86 L 65.46 532.20 L 67.86 527.80 L 70.56 523.65 L 73.60 519.78 L 77.07 516.14 L 80.99 512.74 L 85.39 509.57 L 89.96 506.86 L 95.14 504.37 L 100.99 502.12 L 107.58 500.11 L 114.05 498.61 L 121.33 497.36 L 129.51 496.41 L 138.65 495.80 Z" fill="#34322b" fill-rule="nonzero" group-id="1" id="路径" node-id="76" stroke="none" target-height="212.93" target-width="95.67" target-x="54.45" target-y="495.8"></path><path d="M 894.32 496.56 L 900.04 495.43 L 905.42 494.93 L 910.50 495.01 L 915.32 495.66 L 919.91 496.85 L 924.33 498.59 L 928.58 500.90 L 932.71 503.80 L 936.72 507.35 L 931.09 508.33 L 925.60 508.72 L 920.24 508.55 L 914.98 507.83 L 909.78 506.55 L 904.62 504.69 L 899.47 502.24 L 894.32 499.15 L 894.32 496.56 Z" fill="#988f60" fill-rule="nonzero" group-id="1" id="路径" node-id="77" stroke="none" target-height="13.790009" target-width="42.399963" target-x="894.32" target-y="494.93"></path><path d="M 894.32 499.15 L 899.47 502.24 L 904.62 504.69 L 909.78 506.55 L 914.98 507.83 L 920.24 508.55 L 925.60 508.72 L 931.09 508.33 L 936.72 507.35 L 941.81 511.33 L 946.53 515.70 L 950.91 520.49 L 954.95 525.73 L 958.66 531.43 L 962.04 537.63 L 965.09 544.36 L 967.79 551.68 L 970.12 559.61 L 972.07 568.21 L 973.61 577.53 L 974.71 587.62 L 975.33 598.54 L 975.37 608.34 L 974.83 617.96 L 973.70 627.43 L 971.99 636.75 L 969.69 645.96 L 966.81 655.06 L 963.32 664.08 L 959.22 673.02 L 956.48 677.84 L 953.27 682.29 L 949.58 686.40 L 945.38 690.18 L 940.62 693.65 L 935.27 696.80 L 929.25 699.62 L 922.52 702.09 L 914.99 704.20 L 906.60 705.90 L 897.24 707.15 L 886.85 707.91 L 875.32 708.13 L 874.41 698.13 L 872.91 679.97 L 871.26 655.80 L 870.53 642.31 L 869.93 627.78 L 869.53 613.03 L 869.37 598.05 L 869.54 583.12 L 870.06 568.77 L 871.03 554.74 L 872.43 542.08 L 873.74 533.81 L 875.26 526.53 L 876.96 520.15 L 878.60 515.34 L 880.35 511.29 L 882.19 507.91 L 884.11 505.12 L 885.97 503.03 L 887.91 501.43 L 889.93 500.28 L 892.06 499.52 L 894.32 499.15 Z" fill="#34322b" fill-rule="nonzero" group-id="1" id="路径" node-id="78" stroke="none" target-height="208.98001" target-width="106" target-x="869.37" target-y="499.15"></path><path d="M 413.44 932.00 L 419.37 993.10 L 404.41 990.15 L 390.17 986.76 L 376.62 982.92 L 363.71 978.66 L 351.43 973.99 L 339.74 968.91 L 328.61 963.44 L 318.03 957.58 L 307.97 951.34 L 298.40 944.70 L 289.31 937.68 L 280.68 930.27 L 272.50 922.45 L 264.76 914.22 L 257.43 905.58 L 250.53 896.49 L 244.03 886.96 L 237.94 876.95 L 232.25 866.46 L 226.98 855.46 L 222.12 843.92 L 217.67 831.82 L 213.66 819.13 L 210.09 805.83 L 206.97 791.88 L 204.33 777.26 L 202.18 761.93 L 205.87 753.86 L 208.95 745.69 L 211.42 737.40 L 213.29 728.98 L 214.57 720.41 L 215.25 711.66 L 215.33 702.71 L 214.79 693.53 L 219.43 691.58 L 223.50 690.46 L 227.09 690.05 L 230.30 690.26 L 233.20 691.03 L 235.87 692.35 L 238.35 694.28 L 240.66 696.88 L 242.82 700.28 L 244.80 704.63 L 246.56 710.10 L 250.65 724.23 L 255.20 737.87 L 260.21 751.03 L 265.69 763.75 L 271.61 776.02 L 277.98 787.88 L 284.81 799.33 L 292.09 810.39 L 299.83 821.08 L 308.04 831.39 L 316.72 841.35 L 325.89 850.97 L 335.55 860.24 L 345.72 869.17 L 356.42 877.77 L 367.67 886.05 L 379.47 893.99 L 391.86 901.60 L 395.39 904.03 L 398.62 906.86 L 401.57 910.09 L 404.23 913.59 L 406.60 917.22 L 408.69 920.98 L 411.39 926.72 L 413.44 932.00 Z" fill="#ffffff" fill-rule="nonzero" group-id="1" id="路径" node-id="79" stroke="none" target-height="303.05" target-width="217.19" target-x="202.18" target-y="690.05"></path><path d="M 202.18 761.93 L 204.33 777.26 L 206.97 791.88 L 210.09 805.83 L 213.66 819.13 L 217.67 831.82 L 222.12 843.92 L 226.98 855.46 L 232.25 866.46 L 237.94 876.95 L 244.03 886.96 L 250.53 896.49 L 257.43 905.58 L 264.76 914.22 L 272.50 922.45 L 280.68 930.27 L 289.31 937.68 L 298.40 944.70 L 307.97 951.34 L 318.03 957.58 L 328.61 963.44 L 339.74 968.91 L 351.43 973.99 L 363.71 978.66 L 376.62 982.92 L 390.17 986.76 L 404.41 990.15 L 419.37 993.10 L 552.96 1001.30 L 547.03 1067.57 L 546.56 1069.78 L 545.72 1071.64 L 544.53 1073.24 L 543.01 1074.50 L 541.33 1075.29 L 539.43 1075.63 L 486.09 1075.93 L 484.00 1075.65 L 482.12 1074.88 L 480.48 1073.67 L 479.15 1072.07 L 478.22 1070.19 L 477.73 1068.03 L 474.99 1041.12 L 474.52 1039.02 L 473.65 1037.17 L 472.37 1035.53 L 470.77 1034.18 L 468.93 1033.22 L 466.78 1032.61 L 369.97 1017.11 L 355.25 1011.58 L 341.25 1005.67 L 327.94 999.39 L 315.29 992.75 L 303.27 985.75 L 291.85 978.40 L 281.02 970.69 L 270.75 962.63 L 261.03 954.21 L 251.83 945.44 L 243.13 936.30 L 234.94 926.78 L 227.23 916.88 L 220.00 906.58 L 213.23 895.87 L 206.94 884.74 L 201.11 873.15 L 195.74 861.11 L 190.84 848.58 L 186.42 835.54 L 182.48 821.98 L 179.03 807.86 L 176.09 793.17 L 173.67 777.86 L 171.78 761.93 L 175.31 758.66 L 178.60 756.32 L 181.69 754.78 L 184.63 753.91 L 187.48 753.65 L 190.29 753.96 L 193.12 754.86 L 196.02 756.41 L 199.03 758.72 L 202.18 761.93 Z" fill="#34322b" fill-rule="nonzero" group-id="1" id="路径" node-id="80" stroke="none" target-height="322.28003" target-width="381.18002" target-x="171.78" target-y="753.65"></path><path d="M 611.93 933.82 L 609.95 986.11 L 604.14 989.91 L 598.23 993.15 L 592.22 995.86 L 586.09 998.04 L 579.82 999.71 L 573.40 1000.88 L 566.80 1001.54 L 559.99 1001.69 L 552.96 1001.30 L 419.37 993.10 L 413.44 932.00 L 428.68 935.68 L 443.89 938.75 L 459.07 941.23 L 474.24 943.12 L 489.41 944.43 L 504.59 945.15 L 519.78 945.30 L 535.00 944.86 L 550.27 943.84 L 565.58 942.23 L 580.95 940.03 L 596.40 937.23 L 611.93 933.82 Z" fill="#f2aa7d" fill-rule="nonzero" group-id="1" id="路径" node-id="81" stroke="none" target-height="69.69" target-width="198.48999" target-x="413.44" target-y="932"></path><path d="M 609.95 986.11 L 614.76 992.12 L 619.90 997.73 L 625.40 1002.95 L 631.26 1007.80 L 637.51 1012.27 L 644.16 1016.37 L 651.23 1020.12 L 658.74 1023.49 L 656.60 1034.20 L 654.06 1044.30 L 651.14 1053.85 L 647.85 1062.85 L 644.21 1071.36 L 640.02 1079.85 L 635.54 1087.81 L 630.79 1095.27 L 625.76 1102.25 L 620.45 1108.77 L 614.69 1115.08 L 608.74 1120.91 L 602.59 1126.28 L 596.24 1131.21 L 589.69 1135.72 L 582.82 1139.87 L 575.85 1143.58 L 568.75 1146.86 L 561.53 1149.72 L 554.16 1152.15 L 546.64 1154.18 L 539.09 1155.79 L 531.49 1156.96 L 523.83 1157.72 L 516.10 1158.06 L 508.37 1157.97 L 500.69 1157.47 L 493.03 1156.54 L 485.39 1155.18 L 477.76 1153.40 L 470.27 1151.21 L 462.89 1148.59 L 455.62 1145.55 L 448.44 1142.07 L 441.35 1138.14 L 434.55 1133.87 L 427.94 1129.15 L 421.50 1123.99 L 415.23 1118.37 L 409.13 1112.26 L 403.47 1105.93 L 398.05 1099.13 L 392.89 1091.84 L 387.98 1084.05 L 383.32 1075.73 L 379.21 1067.36 L 375.43 1058.49 L 371.99 1049.07 L 368.90 1039.09 L 366.17 1028.51 L 369.97 1017.11 L 466.78 1032.61 L 468.93 1033.22 L 470.77 1034.18 L 472.37 1035.53 L 473.65 1037.17 L 474.52 1039.02 L 474.99 1041.12 L 477.73 1068.03 L 478.22 1070.19 L 479.15 1072.07 L 480.48 1073.67 L 482.12 1074.88 L 484.00 1075.65 L 486.09 1075.93 L 539.43 1075.63 L 541.33 1075.29 L 543.01 1074.50 L 544.53 1073.24 L 545.72 1071.64 L 546.56 1069.78 L 547.03 1067.57 L 552.96 1001.30 L 559.99 1001.69 L 566.80 1001.54 L 573.40 1000.88 L 579.82 999.71 L 586.09 998.04 L 592.22 995.86 L 598.23 993.15 L 604.14 989.91 L 609.95 986.11 Z" fill="#f6c9aa" fill-rule="nonzero" group-id="1" id="路径" node-id="82" stroke="none" target-height="171.95007" target-width="292.56998" target-x="366.17" target-y="986.11"></path><path d="M 658.74 1023.49 L 789.34 1085.09 L 920.00 1146.45 L 928.10 1150.55 L 935.72 1154.97 L 942.89 1159.70 L 949.63 1164.75 L 955.97 1170.11 L 962.03 1175.87 L 967.75 1181.91 L 973.12 1188.24 L 978.16 1194.85 L 982.87 1201.77 L 988.28 1210.70 L 993.26 1220.02 L 997.81 1229.74 L 1001.94 1239.88 L 1005.58 1250.15 L 1008.87 1260.74 L 1011.81 1271.65 L 1014.38 1282.90 L 1017.24 1297.98 L 1019.59 1313.44 L 1021.42 1329.29 L 1022.76 1345.20 L 1023.71 1361.27 L 1024.27 1377.50 L 1024.51 1401.84 L 1024.15 1425.99 L 1023.36 1449.99 L 1022.29 1473.22 L 1019.89 1517.65 L 1018.87 1538.64 L 1018.19 1557.72 L 1017.87 1559.85 L 1017.06 1561.72 L 1015.82 1563.32 L 1014.23 1564.55 L 1012.37 1565.34 L 1010.28 1565.63 L 784.89 1564.87 L 787.56 1553.41 L 789.59 1542.10 L 790.98 1530.91 L 791.75 1519.83 L 791.91 1508.85 L 791.46 1497.95 L 790.41 1487.11 L 788.75 1476.31 L 786.48 1465.54 L 783.60 1454.79 L 780.07 1444.03 L 775.90 1433.26 L 771.06 1422.46 L 769.72 1418.96 L 768.97 1415.38 L 768.80 1411.75 L 769.24 1408.17 L 772.73 1390.21 L 775.87 1372.38 L 778.66 1354.67 L 779.87 1345.06 L 780.57 1336.03 L 780.80 1327.54 L 780.59 1319.57 L 779.96 1312.06 L 778.84 1304.32 L 777.35 1297.08 L 775.50 1290.30 L 773.31 1283.97 L 770.77 1278.04 L 767.77 1272.16 L 764.47 1266.70 L 760.89 1261.62 L 757.03 1256.92 L 752.87 1252.57 L 748.38 1248.49 L 743.66 1244.77 L 738.70 1241.39 L 733.49 1238.35 L 728.01 1235.63 L 720.97 1232.75 L 713.63 1230.38 L 705.96 1228.53 L 697.95 1227.20 L 689.92 1226.42 L 681.67 1226.16 L 673.19 1226.43 L 664.44 1227.25 L 655.84 1228.56 L 647.11 1230.40 L 638.26 1232.79 L 629.26 1235.75 L 620.50 1239.15 L 611.74 1243.09 L 602.96 1247.60 L 594.15 1252.69 L 576.38 1250.49 L 558.64 1248.85 L 540.92 1247.76 L 523.21 1247.21 L 505.50 1247.21 L 487.79 1247.76 L 470.07 1248.85 L 452.33 1250.49 L 434.56 1252.69 L 425.68 1247.84 L 416.49 1243.35 L 407.00 1239.22 L 397.33 1235.55 L 387.53 1232.41 L 377.58 1229.79 L 370.02 1228.21 L 362.47 1227.02 L 354.92 1226.20 L 347.37 1225.77 L 339.80 1225.75 L 332.30 1226.20 L 324.86 1227.12 L 317.47 1228.49 L 310.21 1230.36 L 303.05 1232.78 L 295.97 1235.76 L 288.96 1239.31 L 282.25 1243.40 L 276.27 1247.66 L 270.97 1252.09 L 266.30 1256.68 L 261.95 1261.71 L 258.13 1266.88 L 254.81 1272.22 L 251.97 1277.73 L 249.54 1283.47 L 247.49 1289.35 L 245.83 1295.39 L 244.56 1301.61 L 243.39 1309.99 L 242.76 1318.60 L 242.66 1327.45 L 243.01 1336.31 L 243.75 1345.29 L 244.87 1354.39 L 247.07 1368.00 L 249.78 1381.59 L 252.82 1395.07 L 255.98 1408.17 L 256.43 1411.07 L 256.49 1414.41 L 256.11 1418.28 L 255.22 1422.76 L 226.65 1535.53 L 226.12 1538.74 L 226.10 1541.90 L 226.59 1545.06 L 227.55 1548.11 L 228.98 1551.01 L 230.91 1553.78 L 233.23 1556.23 L 235.84 1558.31 L 238.78 1560.02 L 241.92 1561.32 L 245.21 1562.17 L 248.69 1562.59 L 258.98 1562.79 L 268.57 1562.41 L 277.50 1561.49 L 285.83 1560.07 L 293.60 1558.17 L 300.85 1555.81 L 307.62 1553.00 L 313.95 1549.76 L 319.86 1546.09 L 325.38 1541.97 L 330.54 1537.40 L 335.34 1532.36 L 339.81 1526.82 L 343.94 1520.76 L 347.74 1514.13 L 351.20 1506.89 L 354.30 1499.01 L 357.04 1490.43 L 359.38 1481.09 L 361.31 1470.94 L 361.64 1469.65 L 362.24 1468.49 L 363.09 1467.49 L 364.16 1466.69 L 365.39 1466.14 L 366.70 1465.88 L 368.04 1465.91 L 369.36 1466.23 L 379.40 1469.74 L 388.75 1472.41 L 397.47 1474.29 L 405.61 1475.46 L 413.21 1475.97 L 420.34 1475.87 L 427.02 1475.19 L 433.31 1473.97 L 439.24 1472.21 L 444.86 1469.94 L 450.18 1467.13 L 455.25 1463.79 L 460.07 1459.88 L 464.67 1455.37 L 469.04 1450.22 L 473.20 1444.37 L 477.13 1437.77 L 480.83 1430.34 L 484.28 1422.02 L 487.45 1412.73 L 488.94 1408.84 L 490.74 1405.58 L 492.20 1403.63 L 493.73 1402.02 L 495.36 1400.72 L 499.31 1398.37 L 503.19 1396.65 L 507.01 1395.52 L 510.81 1394.93 L 514.63 1394.87 L 518.50 1395.34 L 522.46 1396.37 L 526.54 1397.99 L 530.77 1400.27 L 532.50 1401.54 L 534.06 1403.13 L 535.47 1405.09 L 536.62 1407.22 L 537.53 1409.61 L 538.22 1412.27 L 540.11 1420.35 L 542.40 1427.71 L 545.08 1434.40 L 548.11 1440.49 L 551.49 1446.01 L 555.23 1451.02 L 559.31 1455.54 L 563.75 1459.60 L 568.58 1463.23 L 573.81 1466.43 L 579.48 1469.22 L 585.63 1471.58 L 592.29 1473.50 L 599.52 1474.97 L 607.37 1475.95 L 615.88 1476.41 L 618.98 1476.19 L 622.51 1475.35 L 626.05 1473.99 L 629.86 1472.00 L 634.21 1469.78 L 638.67 1468.11 L 643.26 1466.99 L 648.01 1466.41 L 652.97 1466.38 L 655.04 1466.74 L 656.93 1467.54 L 658.67 1468.81 L 660.13 1470.41 L 661.27 1472.32 L 662.09 1474.59 L 664.76 1484.15 L 667.91 1493.23 L 671.53 1501.83 L 675.61 1510.00 L 680.16 1517.76 L 685.18 1525.12 L 690.68 1532.12 L 696.67 1538.75 L 703.17 1545.04 L 710.20 1550.99 L 717.78 1556.61 L 725.95 1561.89 L 734.73 1566.84 L 13.41 1566.99 L 11.40 1566.72 L 9.62 1565.96 L 8.09 1564.78 L 6.90 1563.24 L 6.12 1561.44 L 5.81 1559.40 L 5.10 1527.52 L 3.94 1496.11 L 1.44 1434.51 L 0.84 1414.31 L 0.56 1394.64 L 0.58 1375.48 L 1.05 1356.31 L 2.08 1337.79 L 3.65 1319.90 L 5.30 1306.48 L 7.40 1293.49 L 9.94 1280.89 L 12.91 1268.68 L 15.71 1258.95 L 18.89 1249.50 L 22.44 1240.31 L 26.36 1231.38 L 30.65 1222.69 L 35.37 1214.23 L 40.57 1206.02 L 46.26 1198.05 L 52.44 1190.32 L 59.14 1182.81 L 66.14 1175.80 L 73.76 1169.01 L 82.03 1162.44 L 90.98 1156.08 L 100.65 1149.95 L 113.65 1142.54 L 130.75 1133.48 L 152.71 1122.50 L 180.35 1109.34 L 214.55 1093.69 L 256.24 1075.23 L 306.42 1053.62 L 366.17 1028.51 L 368.90 1039.09 L 371.99 1049.07 L 375.43 1058.49 L 379.21 1067.36 L 383.32 1075.73 L 387.98 1084.05 L 392.89 1091.84 L 398.05 1099.13 L 403.47 1105.93 L 409.13 1112.26 L 415.23 1118.37 L 421.50 1123.99 L 427.94 1129.15 L 434.55 1133.87 L 441.35 1138.14 L 448.44 1142.07 L 455.62 1145.55 L 462.89 1148.59 L 470.27 1151.21 L 477.76 1153.40 L 485.39 1155.18 L 493.03 1156.54 L 500.69 1157.47 L 508.37 1157.97 L 516.10 1158.06 L 523.83 1157.72 L 531.49 1156.96 L 539.09 1155.79 L 546.64 1154.18 L 554.16 1152.15 L 561.53 1149.72 L 568.75 1146.86 L 575.85 1143.58 L 582.82 1139.87 L 589.69 1135.72 L 596.24 1131.21 L 602.59 1126.28 L 608.74 1120.91 L 614.69 1115.08 L 620.45 1108.77 L 625.76 1102.25 L 630.79 1095.27 L 635.54 1087.81 L 640.02 1079.85 L 644.21 1071.36 L 647.85 1062.85 L 651.14 1053.85 L 654.06 1044.31 L 656.60 1034.20 L 658.74 1023.49 Z" fill="#504c43" fill-rule="nonzero" group-id="1" id="路径" node-id="83" stroke="none" target-height="543.5" target-width="1023.95" target-x="0.56" target-y="1023.49"></path><path d="M 434.56 1252.69 L 447.94 1309.08 L 448.69 1311.05 L 449.89 1312.75 L 451.59 1314.21 L 453.58 1315.29 L 455.84 1315.96 L 458.43 1316.22 L 565.57 1315.61 L 568.15 1315.36 L 570.42 1314.71 L 572.44 1313.67 L 574.19 1312.24 L 575.49 1310.57 L 576.37 1308.62 L 594.15 1252.69 L 602.96 1247.60 L 611.74 1243.09 L 620.50 1239.15 L 629.26 1235.75 L 638.26 1232.79 L 647.11 1230.40 L 655.84 1228.56 L 664.44 1227.25 L 673.19 1226.43 L 681.67 1226.16 L 689.92 1226.42 L 697.95 1227.20 L 705.96 1228.53 L 713.63 1230.38 L 720.97 1232.75 L 728.01 1235.63 L 733.49 1238.35 L 738.70 1241.39 L 743.66 1244.77 L 748.38 1248.49 L 752.87 1252.57 L 757.03 1256.92 L 760.89 1261.62 L 764.47 1266.70 L 767.77 1272.16 L 770.77 1278.04 L 773.31 1283.97 L 775.50 1290.30 L 777.35 1297.08 L 778.84 1304.32 L 779.96 1312.06 L 780.59 1319.57 L 780.80 1327.54 L 780.57 1336.03 L 779.87 1345.06 L 778.66 1354.67 L 775.87 1372.38 L 772.73 1390.21 L 769.24 1408.17 L 768.80 1411.75 L 768.97 1415.38 L 769.72 1418.96 L 771.06 1422.46 L 775.90 1433.26 L 780.07 1444.03 L 783.60 1454.79 L 786.48 1465.54 L 788.75 1476.31 L 790.41 1487.11 L 791.46 1497.95 L 791.91 1508.85 L 791.75 1519.83 L 790.98 1530.91 L 789.59 1542.10 L 787.56 1553.41 L 784.89 1564.87 L 734.73 1566.84 L 725.95 1561.89 L 717.78 1556.61 L 710.20 1550.99 L 703.17 1545.04 L 696.67 1538.75 L 690.68 1532.12 L 685.18 1525.12 L 680.16 1517.76 L 675.61 1510.00 L 671.53 1501.83 L 667.91 1493.23 L 664.76 1484.15 L 662.09 1474.59 L 661.27 1472.32 L 660.13 1470.41 L 658.67 1468.81 L 656.93 1467.54 L 655.04 1466.74 L 652.97 1466.38 L 648.01 1466.41 L 643.26 1466.99 L 638.67 1468.11 L 634.21 1469.78 L 629.86 1472.00 L 626.05 1473.99 L 622.51 1475.35 L 618.98 1476.19 L 615.88 1476.41 L 607.37 1475.95 L 599.52 1474.97 L 592.29 1473.50 L 585.63 1471.58 L 579.48 1469.22 L 573.81 1466.43 L 568.58 1463.23 L 563.75 1459.60 L 559.31 1455.54 L 555.23 1451.02 L 551.49 1446.01 L 548.11 1440.49 L 545.08 1434.40 L 542.40 1427.71 L 540.11 1420.35 L 538.22 1412.27 L 537.53 1409.61 L 536.62 1407.22 L 535.47 1405.09 L 534.06 1403.13 L 532.50 1401.54 L 530.77 1400.27 L 526.54 1397.99 L 522.46 1396.37 L 518.50 1395.34 L 514.63 1394.87 L 510.81 1394.93 L 507.01 1395.52 L 503.19 1396.65 L 499.31 1398.37 L 495.36 1400.72 L 493.73 1402.02 L 492.20 1403.63 L 490.74 1405.58 L 488.94 1408.84 L 487.45 1412.73 L 484.28 1422.02 L 480.83 1430.34 L 477.13 1437.77 L 473.20 1444.37 L 469.04 1450.22 L 464.67 1455.37 L 460.07 1459.88 L 455.25 1463.79 L 450.18 1467.13 L 444.86 1469.94 L 439.24 1472.21 L 433.31 1473.97 L 427.02 1475.19 L 420.34 1475.87 L 413.21 1475.97 L 405.61 1475.46 L 397.47 1474.29 L 388.75 1472.41 L 379.40 1469.74 L 369.36 1466.23 L 368.04 1465.91 L 366.70 1465.88 L 365.39 1466.14 L 364.16 1466.69 L 363.09 1467.49 L 362.24 1468.49 L 361.64 1469.65 L 361.31 1470.94 L 359.38 1481.09 L 357.04 1490.43 L 354.30 1499.01 L 351.20 1506.89 L 347.74 1514.13 L 343.94 1520.76 L 339.81 1526.82 L 335.34 1532.36 L 330.54 1537.40 L 325.38 1541.97 L 319.86 1546.09 L 313.95 1549.76 L 307.62 1553.00 L 300.85 1555.81 L 293.60 1558.17 L 285.83 1560.07 L 277.50 1561.49 L 268.57 1562.41 L 258.98 1562.78 L 248.69 1562.59 L 245.21 1562.17 L 241.92 1561.32 L 238.78 1560.02 L 235.84 1558.31 L 233.23 1556.23 L 230.91 1553.78 L 228.98 1551.01 L 227.55 1548.11 L 226.59 1545.06 L 226.10 1541.90 L 226.12 1538.74 L 226.65 1535.53 L 255.22 1422.76 L 256.11 1418.28 L 256.49 1414.41 L 256.43 1411.07 L 255.98 1408.17 L 252.82 1395.07 L 249.78 1381.59 L 247.07 1368.00 L 244.87 1354.40 L 243.75 1345.29 L 243.01 1336.31 L 242.66 1327.45 L 242.76 1318.60 L 243.39 1309.99 L 244.56 1301.61 L 245.83 1295.39 L 247.49 1289.35 L 249.54 1283.47 L 251.97 1277.73 L 254.81 1272.22 L 258.13 1266.88 L 261.95 1261.71 L 266.30 1256.68 L 270.97 1252.09 L 276.27 1247.66 L 282.25 1243.40 L 288.96 1239.31 L 295.97 1235.76 L 303.05 1232.78 L 310.21 1230.36 L 317.47 1228.49 L 324.86 1227.12 L 332.30 1226.20 L 339.80 1225.75 L 347.37 1225.77 L 354.92 1226.20 L 362.47 1227.02 L 370.02 1228.21 L 377.58 1229.79 L 387.53 1232.41 L 397.33 1235.55 L 407.00 1239.22 L 416.49 1243.35 L 425.68 1247.84 L 434.56 1252.69 Z M 309.18 1317.28 L 302.31 1320.82 L 297.17 1324.06 L 293.46 1327.01 L 290.89 1329.71 L 289.24 1332.20 L 288.33 1334.52 L 288.03 1336.75 L 288.32 1338.96 L 289.22 1341.23 L 290.83 1343.61 L 293.34 1346.16 L 296.97 1348.90 L 301.97 1351.87 L 308.67 1355.05 L 317.38 1358.47 L 321.01 1366.31 L 324.27 1372.13 L 327.21 1376.32 L 329.86 1379.19 L 332.25 1381.03 L 334.44 1382.06 L 336.50 1382.43 L 338.52 1382.23 L 340.57 1381.41 L 342.72 1379.88 L 345.03 1377.42 L 347.52 1373.81 L 350.21 1368.72 L 353.10 1361.81 L 354.03 1359.85 L 355.26 1358.03 L 356.80 1356.34 L 358.57 1354.87 L 360.57 1353.61 L 362.83 1352.54 L 366.60 1350.79 L 369.94 1348.64 L 372.88 1346.07 L 375.45 1343.05 L 377.67 1339.56 L 379.54 1335.52 L 380.00 1333.62 L 379.91 1331.68 L 379.31 1329.79 L 378.23 1328.00 L 376.75 1326.46 L 374.83 1325.19 L 372.37 1323.70 L 369.73 1321.73 L 366.89 1319.23 L 362.84 1315.16 L 358.64 1310.45 L 350.63 1300.60 L 343.40 1291.43 L 340.10 1287.49 L 337.51 1284.71 L 335.69 1283.12 L 334.40 1282.37 L 333.49 1282.17 L 331.79 1282.55 L 330.08 1283.47 L 328.31 1285.04 L 326.84 1286.92 L 325.52 1289.23 L 324.37 1292.05 L 322.19 1297.72 L 319.59 1303.06 L 316.56 1308.09 L 313.09 1312.82 L 309.18 1317.28 Z M 708.14 1320.47 L 705.50 1308.90 L 702.98 1300.23 L 700.60 1293.93 L 698.38 1289.52 L 696.32 1286.59 L 694.42 1284.77 L 692.64 1283.79 L 690.90 1283.46 L 689.12 1283.72 L 687.18 1284.67 L 685.00 1286.49 L 682.51 1289.49 L 679.67 1294.03 L 676.42 1300.54 L 672.72 1309.53 L 671.74 1311.68 L 670.50 1313.62 L 668.98 1315.36 L 667.23 1316.88 L 665.30 1318.12 L 663.15 1319.11 L 654.88 1322.56 L 648.95 1325.58 L 644.88 1328.20 L 642.24 1330.48 L 640.68 1332.47 L 639.91 1334.23 L 639.77 1335.86 L 640.20 1337.46 L 641.28 1339.11 L 643.20 1340.88 L 646.27 1342.79 L 650.86 1344.85 L 657.38 1347.05 L 666.34 1349.35 L 668.45 1350.08 L 670.32 1351.15 L 671.96 1352.56 L 673.32 1354.25 L 674.33 1356.16 L 675.00 1358.32 L 676.80 1365.98 L 678.63 1371.67 L 680.44 1375.76 L 682.20 1378.59 L 683.91 1380.45 L 685.57 1381.55 L 687.24 1382.07 L 688.98 1382.05 L 690.89 1381.45 L 693.05 1380.16 L 695.54 1377.94 L 698.44 1374.52 L 701.81 1369.57 L 705.71 1362.73 L 707.73 1359.54 L 710.18 1356.84 L 712.05 1355.30 L 714.05 1354.02 L 716.19 1353.00 L 723.94 1349.81 L 726.20 1348.69 L 728.20 1347.36 L 729.97 1345.81 L 731.50 1344.04 L 732.73 1342.14 L 733.67 1340.08 L 735.29 1334.77 L 736.08 1330.52 L 736.24 1327.12 L 735.88 1324.42 L 735.10 1322.28 L 733.95 1320.57 L 732.40 1319.21 L 730.39 1318.19 L 727.79 1317.53 L 724.45 1317.29 L 720.20 1317.60 L 714.84 1318.60 L 708.14 1320.47 Z M 446.87 1408.02 L 446.59 1403.99 L 445.82 1400.20 L 444.57 1396.60 L 442.86 1393.20 L 440.77 1390.10 L 438.28 1387.28 L 435.46 1384.79 L 432.36 1382.70 L 428.96 1380.99 L 425.36 1379.73 L 421.57 1378.96 L 417.54 1378.68 L 413.66 1378.94 L 409.93 1379.69 L 406.32 1380.92 L 402.89 1382.60 L 399.73 1384.72 L 396.80 1387.28 L 394.24 1390.20 L 392.13 1393.37 L 390.44 1396.79 L 389.21 1400.41 L 388.47 1404.14 L 388.21 1408.02 L 388.47 1411.90 L 389.21 1415.63 L 390.44 1419.24 L 392.13 1422.67 L 394.24 1425.83 L 396.80 1428.76 L 399.73 1431.32 L 402.89 1433.43 L 406.32 1435.12 L 409.93 1436.35 L 413.66 1437.09 L 417.54 1437.35 L 421.57 1437.07 L 425.36 1436.30 L 428.96 1435.05 L 432.36 1433.33 L 435.46 1431.24 L 438.28 1428.76 L 440.77 1425.94 L 442.86 1422.84 L 444.57 1419.44 L 445.82 1415.84 L 446.59 1412.05 L 446.87 1408.02 L 446.87 1408.02 Z M 637.16 1408.02 L 636.89 1404.11 L 636.14 1400.44 L 634.93 1396.95 L 633.27 1393.66 L 631.24 1390.65 L 628.84 1387.92 L 626.10 1385.52 L 623.10 1383.49 L 619.80 1381.83 L 616.32 1380.61 L 612.64 1379.87 L 608.74 1379.60 L 604.83 1379.87 L 601.16 1380.61 L 597.68 1381.83 L 594.38 1383.49 L 591.37 1385.51 L 588.64 1387.92 L 586.24 1390.65 L 584.21 1393.66 L 582.55 1396.95 L 581.34 1400.44 L 580.59 1404.11 L 580.32 1408.02 L 580.57 1411.78 L 581.29 1415.39 L 582.48 1418.89 L 584.11 1422.21 L 586.16 1425.28 L 588.64 1428.11 L 591.48 1430.59 L 594.54 1432.64 L 597.86 1434.28 L 601.36 1435.47 L 604.98 1436.19 L 608.74 1436.44 L 612.64 1436.17 L 616.32 1435.42 L 619.80 1434.21 L 623.10 1432.55 L 626.10 1430.52 L 628.84 1428.11 L 631.24 1425.38 L 633.27 1422.38 L 634.93 1419.08 L 636.14 1415.60 L 636.89 1411.92 L 637.16 1408.02 L 637.16 1408.02 Z" fill="#d8d6c1" fill-rule="nonzero" group-id="1" id="形状" node-id="84" stroke="none" target-height="341.08997" target-width="565.80994" target-x="226.1" target-y="1225.75"></path><path d="M 594.15 1252.69 L 576.37 1308.62 L 575.49 1310.57 L 574.19 1312.24 L 572.44 1313.67 L 570.42 1314.71 L 568.15 1315.36 L 565.57 1315.61 L 458.43 1316.22 L 455.84 1315.96 L 453.58 1315.29 L 451.59 1314.21 L 449.89 1312.75 L 448.69 1311.05 L 447.94 1309.08 L 434.56 1252.69 L 452.33 1250.49 L 470.07 1248.85 L 487.79 1247.76 L 505.50 1247.21 L 523.21 1247.21 L 540.92 1247.76 L 558.64 1248.85 L 576.38 1250.49 L 594.15 1252.69 Z" fill="#3079ae" fill-rule="nonzero" group-id="1" id="路径" node-id="85" stroke="none" target-height="69.01001" target-width="159.59003" target-x="434.56" target-y="1247.21"></path><path d="M 427.12 483.34 L 406.01 478.34 L 396.17 476.25 L 386.85 474.66 L 380.67 473.90 L 374.49 473.48 L 368.31 473.38 L 362.14 473.66 L 355.72 474.40 L 349.04 475.61 L 342.46 477.24 L 335.37 479.50 L 327.72 482.43 L 325.10 483.34 L 322.63 483.90 L 320.26 484.14 L 317.90 484.04 L 315.79 483.62 L 313.89 482.88 L 310.72 480.90 L 308.33 478.79 L 306.59 476.53 L 305.43 474.12 L 304.80 471.49 L 304.72 468.58 L 305.23 465.31 L 306.44 461.60 L 307.44 459.61 L 308.77 457.77 L 310.47 456.06 L 312.40 454.60 L 314.59 453.36 L 317.08 452.33 L 327.23 449.24 L 337.29 446.77 L 347.27 444.90 L 357.19 443.62 L 367.07 442.92 L 376.91 442.80 L 386.74 443.25 L 396.57 444.28 L 406.42 445.88 L 416.30 448.08 L 426.24 450.89 L 436.24 454.31 L 438.69 455.44 L 440.81 456.77 L 442.61 458.32 L 444.14 460.12 L 445.24 462.02 L 445.96 464.04 L 446.45 467.33 L 446.38 470.34 L 445.78 473.15 L 444.65 475.79 L 442.96 478.32 L 440.64 480.75 L 438.99 482.00 L 437.05 482.94 L 434.77 483.57 L 432.40 483.84 L 429.86 483.77 L 427.12 483.34 L 427.12 483.34 Z" fill="#3c3730" fill-rule="nonzero" group-id="1" id="路径" node-id="86" stroke="none" target-height="41.340027" target-width="141.73001" target-x="304.72" target-y="442.8"></path><path d="M 700.84 482.88 L 680.82 478.11 L 671.27 476.10 L 662.09 474.56 L 655.99 473.83 L 649.89 473.43 L 643.80 473.35 L 637.71 473.65 L 631.47 474.39 L 625.04 475.60 L 618.71 477.25 L 612.02 479.51 L 604.94 482.43 L 602.41 483.45 L 599.98 484.13 L 597.63 484.49 L 595.26 484.53 L 593.10 484.24 L 591.11 483.64 L 587.57 481.96 L 584.79 480.13 L 582.65 478.17 L 581.06 476.08 L 579.95 473.82 L 579.30 471.36 L 579.11 468.65 L 579.43 465.62 L 580.32 462.21 L 581.23 460.14 L 582.48 458.23 L 584.12 456.45 L 586.01 454.94 L 588.18 453.67 L 590.65 452.64 L 595.38 451.36 L 602.49 450.13 L 610.31 449.22 L 619.79 448.50 L 629.71 448.06 L 640.56 447.88 L 651.59 447.98 L 662.80 448.37 L 673.94 449.08 L 684.50 450.09 L 694.74 451.48 L 703.67 453.15 L 709.45 454.57 L 714.29 456.08 L 718.30 457.67 L 721.28 459.17 L 723.54 460.69 L 725.21 462.22 L 726.40 463.75 L 727.17 465.48 L 727.38 467.29 L 727.01 469.27 L 725.96 471.51 L 724.55 473.43 L 722.39 475.63 L 719.27 478.15 L 714.98 481.06 L 712.95 482.08 L 710.76 482.82 L 708.38 483.28 L 705.96 483.45 L 703.46 483.32 L 700.84 482.88 Z" fill="#3c3730" fill-rule="nonzero" group-id="1" id="路径" node-id="87" stroke="none" target-height="36.649994" target-width="148.27002" target-x="579.11" target-y="447.88"></path><path d="M 342.61 574.38 L 337.76 574.77 L 333.64 574.61 L 330.14 573.97 L 327.16 572.91 L 324.62 571.47 L 322.46 569.62 L 320.64 567.36 L 319.15 564.62 L 317.99 561.31 L 317.69 559.16 L 317.89 557.08 L 318.61 555.00 L 319.75 553.12 L 321.30 551.48 L 323.31 550.06 L 326.91 548.51 L 332.67 546.77 L 339.10 545.28 L 347.05 543.84 L 355.41 542.65 L 364.62 541.67 L 374.00 541.00 L 383.52 540.67 L 392.99 540.73 L 401.92 541.23 L 407.81 541.86 L 413.15 542.70 L 417.98 543.76 L 422.72 545.18 L 426.64 546.81 L 429.85 548.64 L 432.04 550.34 L 433.70 552.18 L 434.90 554.14 L 435.69 556.28 L 436.00 558.49 L 435.82 560.98 L 435.08 563.81 L 433.65 567.08 L 432.78 568.24 L 431.53 569.24 L 429.79 570.09 L 427.93 570.65 L 425.78 570.97 L 423.32 571.03 L 418.49 571.07 L 414.31 571.64 L 410.70 572.70 L 407.57 574.20 L 404.84 576.14 L 402.48 578.55 L 400.46 581.47 L 398.79 584.97 L 397.47 589.16 L 396.57 594.14 L 396.03 596.54 L 395.18 598.67 L 394.02 600.58 L 392.55 602.24 L 390.87 603.53 L 388.97 604.47 L 382.82 606.52 L 377.50 607.77 L 372.90 608.35 L 368.92 608.35 L 365.47 607.85 L 362.46 606.91 L 359.82 605.54 L 357.51 603.75 L 355.48 601.50 L 353.72 598.73 L 352.24 595.35 L 351.08 591.26 L 350.28 586.34 L 349.91 580.46 L 349.75 579.15 L 349.32 577.93 L 348.63 576.82 L 347.69 575.86 L 346.57 575.11 L 345.32 574.60 L 343.99 574.35 L 342.61 574.38 L 342.61 574.38 Z" fill="#34322b" fill-rule="nonzero" group-id="1" id="路径" node-id="88" stroke="none" target-height="67.67999" target-width="118.31" target-x="317.69" target-y="540.67"></path><path d="M 675.76 584.26 L 675.64 588.15 L 675.13 591.57 L 674.29 594.57 L 673.14 597.21 L 671.60 599.74 L 669.85 601.92 L 667.88 603.81 L 665.66 605.41 L 662.44 607.13 L 659.00 608.38 L 655.33 609.15 L 651.58 609.46 L 647.86 609.33 L 644.13 608.74 L 640.51 607.72 L 637.15 606.30 L 634.04 604.48 L 631.25 602.24 L 628.93 599.65 L 627.06 596.68 L 626.03 594.27 L 625.36 591.65 L 625.06 588.79 L 625.15 585.62 L 625.10 583.53 L 624.61 581.69 L 623.71 580.03 L 622.43 578.64 L 620.91 577.68 L 619.07 577.11 L 612.76 575.93 L 607.72 574.68 L 603.77 573.39 L 600.73 572.09 L 597.64 570.31 L 595.53 568.61 L 594.19 566.98 L 593.45 565.37 L 593.17 563.60 L 593.39 561.81 L 594.13 559.94 L 595.49 557.94 L 597.76 555.63 L 600.89 553.23 L 605.08 550.75 L 609.46 548.66 L 614.56 546.66 L 620.46 544.79 L 626.44 543.26 L 632.90 542.00 L 639.87 541.02 L 646.87 540.42 L 654.09 540.22 L 661.54 540.43 L 668.96 541.09 L 676.35 542.27 L 683.72 543.98 L 689.15 545.62 L 694.44 547.61 L 699.60 549.95 L 704.64 552.64 L 708.82 555.38 L 711.45 557.65 L 712.93 559.54 L 713.60 561.14 L 713.65 562.56 L 713.16 563.90 L 712.02 565.26 L 709.98 566.69 L 706.70 568.16 L 701.75 569.67 L 682.30 574.53 L 680.40 575.31 L 678.80 576.48 L 677.46 578.06 L 676.49 579.90 L 675.92 581.95 L 675.76 584.26 Z" fill="#34322b" fill-rule="nonzero" group-id="1" id="路径" node-id="89" stroke="none" target-height="69.24005" target-width="120.48004" target-x="593.17" target-y="540.22"></path><path d="M 448.55 785.49 L 442.23 780.84 L 437.92 777.10 L 435.18 774.11 L 433.62 771.72 L 432.90 769.81 L 432.81 768.23 L 433.24 766.86 L 434.22 765.61 L 435.92 764.44 L 438.58 763.37 L 442.56 762.47 L 448.26 761.84 L 456.15 761.62 L 574.24 762.23 L 577.13 762.44 L 579.66 762.98 L 581.90 763.84 L 583.93 765.07 L 585.46 766.50 L 586.55 768.16 L 587.36 770.34 L 587.58 772.41 L 587.27 774.42 L 586.38 776.46 L 584.83 778.56 L 582.45 780.77 L 574.78 786.59 L 567.24 791.62 L 559.81 795.91 L 552.48 799.50 L 545.22 802.43 L 538.02 804.73 L 530.86 806.43 L 523.72 807.55 L 516.58 808.09 L 509.41 808.06 L 502.20 807.46 L 494.91 806.27 L 487.53 804.49 L 480.04 802.08 L 472.42 799.01 L 464.64 795.25 L 456.69 790.76 L 448.55 785.49 Z" fill="#ebebdf" fill-rule="nonzero" group-id="1" id="路径" node-id="90" stroke="none" target-height="46.47003" target-width="154.77002" target-x="432.81" target-y="761.62"></path><path d="M 317.38 1358.47 L 324.98 1350.87 L 331.19 1351.79 L 336.36 1352.04 L 340.65 1351.72 L 344.19 1350.94 L 347.12 1349.76 L 349.53 1348.20 L 351.49 1346.28 L 353.06 1343.95 L 354.25 1341.14 L 355.02 1337.76 L 355.33 1333.71 L 355.08 1328.83 L 354.64 1326.38 L 353.86 1324.12 L 352.74 1322.02 L 351.31 1320.11 L 349.61 1318.49 L 347.63 1317.13 L 343.74 1315.13 L 340.13 1313.83 L 336.77 1313.15 L 333.60 1313.02 L 330.57 1313.43 L 327.63 1314.35 L 324.75 1315.83 L 321.89 1317.91 L 319.03 1320.69 L 316.17 1324.27 L 309.18 1317.28 L 313.09 1312.82 L 316.56 1308.09 L 319.59 1303.06 L 322.19 1297.72 L 324.37 1292.05 L 325.52 1289.23 L 326.84 1286.92 L 328.31 1285.04 L 330.08 1283.47 L 331.79 1282.55 L 333.49 1282.17 L 334.40 1282.37 L 335.69 1283.12 L 337.51 1284.71 L 340.10 1287.49 L 343.40 1291.43 L 350.63 1300.60 L 358.64 1310.45 L 362.84 1315.16 L 366.89 1319.23 L 369.73 1321.73 L 372.37 1323.70 L 374.83 1325.19 L 376.75 1326.46 L 378.23 1328.00 L 379.31 1329.79 L 379.91 1331.68 L 380.00 1333.62 L 379.54 1335.52 L 377.67 1339.56 L 375.45 1343.05 L 372.88 1346.07 L 369.94 1348.64 L 366.60 1350.79 L 362.83 1352.54 L 360.57 1353.61 L 358.57 1354.87 L 356.80 1356.34 L 355.26 1358.03 L 354.03 1359.85 L 353.10 1361.81 L 350.21 1368.72 L 347.52 1373.81 L 345.03 1377.42 L 342.72 1379.88 L 340.57 1381.41 L 338.52 1382.23 L 336.50 1382.43 L 334.44 1382.06 L 332.25 1381.03 L 329.86 1379.19 L 327.21 1376.32 L 324.27 1372.13 L 321.01 1366.31 L 317.38 1358.47 Z" fill="#504c43" fill-rule="nonzero" group-id="1" id="路径" node-id="91" stroke="none" target-height="100.26001" target-width="70.82001" target-x="309.18" target-y="1282.17"></path><path d="M 708.14 1320.47 L 702.17 1317.87 L 697.11 1316.21 L 692.84 1315.36 L 689.22 1315.15 L 686.14 1315.50 L 683.51 1316.32 L 681.23 1317.60 L 679.26 1319.36 L 677.56 1321.64 L 676.13 1324.56 L 675.00 1328.23 L 674.70 1330.49 L 674.81 1332.75 L 675.33 1335.05 L 676.21 1337.24 L 677.46 1339.32 L 679.11 1341.30 L 683.64 1345.54 L 687.45 1348.44 L 690.66 1350.28 L 693.37 1351.29 L 695.69 1351.62 L 697.71 1351.41 L 699.54 1350.69 L 701.24 1349.42 L 702.83 1347.49 L 704.32 1344.73 L 705.66 1340.93 L 706.81 1335.82 L 707.67 1329.11 L 708.14 1320.47 L 714.84 1318.60 L 720.20 1317.60 L 724.45 1317.29 L 727.79 1317.53 L 730.39 1318.19 L 732.40 1319.21 L 733.95 1320.57 L 735.10 1322.28 L 735.88 1324.42 L 736.24 1327.12 L 736.08 1330.52 L 735.29 1334.77 L 733.67 1340.08 L 732.73 1342.14 L 731.50 1344.04 L 729.97 1345.81 L 728.20 1347.36 L 726.20 1348.69 L 723.94 1349.81 L 716.19 1353.00 L 714.05 1354.02 L 712.05 1355.30 L 710.18 1356.84 L 707.73 1359.54 L 705.71 1362.73 L 701.81 1369.57 L 698.44 1374.52 L 695.54 1377.94 L 693.05 1380.16 L 690.89 1381.45 L 688.98 1382.05 L 687.24 1382.07 L 685.57 1381.55 L 683.91 1380.45 L 682.20 1378.59 L 680.44 1375.76 L 678.63 1371.67 L 676.80 1365.98 L 675.00 1358.32 L 674.33 1356.16 L 673.32 1354.25 L 671.96 1352.56 L 670.32 1351.15 L 668.45 1350.08 L 666.34 1349.35 L 657.38 1347.05 L 650.86 1344.85 L 646.27 1342.79 L 643.20 1340.88 L 641.28 1339.11 L 640.20 1337.46 L 639.77 1335.86 L 639.91 1334.23 L 640.68 1332.47 L 642.24 1330.48 L 644.88 1328.20 L 648.95 1325.58 L 654.88 1322.56 L 663.15 1319.11 L 665.30 1318.12 L 667.23 1316.88 L 668.98 1315.36 L 670.50 1313.62 L 671.74 1311.68 L 672.72 1309.53 L 676.42 1300.54 L 679.67 1294.03 L 682.51 1289.49 L 685.00 1286.49 L 687.18 1284.67 L 689.12 1283.72 L 690.90 1283.46 L 692.64 1283.79 L 694.42 1284.77 L 696.32 1286.59 L 698.38 1289.52 L 700.60 1293.93 L 702.98 1300.23 L 705.50 1308.90 L 708.14 1320.47 Z" fill="#463f37" fill-rule="nonzero" group-id="1" id="路径" node-id="92" stroke="none" target-height="98.609985" target-width="96.46997" target-x="639.77" target-y="1283.46"></path><path d="M 324.98 1350.87 L 316.17 1324.27 L 319.03 1320.69 L 321.89 1317.91 L 324.75 1315.83 L 327.63 1314.35 L 330.57 1313.43 L 333.60 1313.02 L 336.77 1313.15 L 340.13 1313.83 L 343.74 1315.13 L 347.63 1317.13 L 349.61 1318.49 L 351.31 1320.11 L 352.74 1322.02 L 353.86 1324.12 L 354.64 1326.38 L 355.08 1328.83 L 355.33 1333.71 L 355.02 1337.76 L 354.25 1341.14 L 353.06 1343.95 L 351.49 1346.28 L 349.53 1348.20 L 347.12 1349.76 L 344.19 1350.94 L 340.65 1351.72 L 336.36 1352.04 L 331.19 1351.79 L 324.98 1350.87 Z" fill="#d8d6c1" fill-rule="nonzero" group-id="1" id="路径" node-id="93" stroke="none" target-height="39.02002" target-width="39.159973" target-x="316.17" target-y="1313.02"></path><path d="M 309.18 1317.28 L 316.17 1324.27 L 324.98 1350.87 L 317.38 1358.47 L 308.67 1355.05 L 301.97 1351.87 L 296.97 1348.90 L 293.34 1346.16 L 290.83 1343.61 L 289.22 1341.23 L 288.32 1338.96 L 288.03 1336.75 L 288.33 1334.52 L 289.24 1332.20 L 290.89 1329.71 L 293.46 1327.01 L 297.17 1324.06 L 302.31 1320.82 L 309.18 1317.28 Z" fill="#463f37" fill-rule="nonzero" group-id="1" id="路径" node-id="94" stroke="none" target-height="41.18994" target-width="36.950012" target-x="288.03" target-y="1317.28"></path><path d="M 708.14 1320.47 L 707.67 1329.11 L 706.81 1335.82 L 705.66 1340.93 L 704.32 1344.73 L 702.83 1347.49 L 701.24 1349.42 L 699.54 1350.69 L 697.71 1351.41 L 695.69 1351.62 L 693.37 1351.29 L 690.66 1350.28 L 687.45 1348.44 L 683.64 1345.54 L 679.11 1341.30 L 677.46 1339.32 L 676.21 1337.24 L 675.33 1335.05 L 674.81 1332.75 L 674.70 1330.49 L 675.00 1328.23 L 676.13 1324.56 L 677.56 1321.64 L 679.26 1319.36 L 681.23 1317.60 L 683.51 1316.32 L 686.14 1315.50 L 689.22 1315.15 L 692.84 1315.36 L 697.11 1316.21 L 702.17 1317.87 L 708.14 1320.47 Z" fill="#dddac5" fill-rule="nonzero" group-id="1" id="路径" node-id="95" stroke="none" target-height="36.46997" target-width="33.440002" target-x="674.7" target-y="1315.15"></path><path d="M 446.87 1408.02 L 446.59 1412.05 L 445.82 1415.84 L 444.57 1419.44 L 442.86 1422.84 L 440.77 1425.94 L 438.28 1428.76 L 435.46 1431.24 L 432.36 1433.33 L 428.96 1435.05 L 425.36 1436.30 L 421.57 1437.07 L 417.54 1437.35 L 413.51 1437.07 L 409.72 1436.30 L 406.12 1435.05 L 402.72 1433.33 L 399.62 1431.24 L 396.80 1428.76 L 394.32 1425.94 L 392.23 1422.84 L 390.51 1419.44 L 389.26 1415.84 L 388.49 1412.05 L 388.21 1408.02 L 388.49 1403.99 L 389.26 1400.20 L 390.51 1396.60 L 392.23 1393.20 L 394.32 1390.10 L 396.80 1387.28 L 399.62 1384.79 L 402.72 1382.70 L 406.12 1380.99 L 409.72 1379.73 L 413.51 1378.96 L 417.54 1378.68 L 421.57 1378.96 L 425.36 1379.73 L 428.96 1380.99 L 432.36 1382.70 L 435.46 1384.79 L 438.28 1387.28 L 440.77 1390.10 L 442.86 1393.20 L 444.57 1396.60 L 445.82 1400.20 L 446.59 1403.99 L 446.87 1408.02 Z" fill="#463f37" fill-rule="nonzero" group-id="1" id="椭圆形" node-id="96" stroke="none" target-height="58.66992" target-width="58.660004" target-x="388.21" target-y="1378.68"></path><path d="M 637.16 1408.02 L 636.89 1411.92 L 636.14 1415.60 L 634.93 1419.08 L 633.27 1422.38 L 631.24 1425.38 L 628.84 1428.11 L 626.10 1430.52 L 623.10 1432.55 L 619.80 1434.21 L 616.32 1435.42 L 612.64 1436.17 L 608.74 1436.44 L 604.83 1436.17 L 601.16 1435.42 L 597.68 1434.21 L 594.38 1432.55 L 591.37 1430.52 L 588.64 1428.11 L 586.24 1425.38 L 584.21 1422.38 L 582.55 1419.08 L 581.34 1415.60 L 580.59 1411.92 L 580.32 1408.02 L 580.59 1404.11 L 581.34 1400.44 L 582.55 1396.95 L 584.21 1393.66 L 586.24 1390.65 L 588.64 1387.92 L 591.37 1385.51 L 594.38 1383.49 L 597.68 1381.83 L 601.16 1380.61 L 604.83 1379.87 L 608.74 1379.60 L 612.64 1379.87 L 616.32 1380.61 L 619.80 1381.83 L 623.10 1383.49 L 626.10 1385.51 L 628.84 1387.92 L 631.24 1390.65 L 633.27 1393.66 L 634.93 1396.95 L 636.14 1400.44 L 636.89 1404.11 L 637.16 1408.02 Z" fill="#463f37" fill-rule="nonzero" group-id="1" id="椭圆形" node-id="97" stroke="none" target-height="56.839966" target-width="56.839966" target-x="580.32" target-y="1379.6"></path></g></svg>